<?xml version="1.0"?>
<svg xmlns:rdf="http://www.w3.org/1999/02/22-rdf-syntax-ns#" xmlns="http://www.w3.org/2000/svg" xmlns:cc="http://web.resource.org/cc/" xmlns:xlink="http://www.w3.org/1999/xlink" xmlns:dc="http://purl.org/dc/elements/1.1/" xmlns:svg="http://www.w3.org/2000/svg" space="preserve" viewBox="0 0 322.542 492.582" enable-background="new 0 0 322.542 492.582" overflow="visible">
  <g id="Layer_1" clip-rule="evenodd" fill-rule="evenodd">
    <linearGradient id="XMLID_1_" y2="402.09" gradientUnits="userSpaceOnUse" y1="492.58" x2="141.71" x1="141.71">
      <stop stop-color="#98D374" offset="0"/>
      <stop stop-color="#157F32" offset="1"/>
    </linearGradient>
    <path d="m141.71 402.09c78.226 0 141.71 20.271 141.71 45.245 0 24.977-63.486 45.246-141.71 45.246-78.223-0.01-141.71-20.28-141.71-45.25 0-24.98 63.487-45.25 141.71-45.25" fill="url(#XMLID_1_)"/>
    <path d="m163.57 62.967c2.674-0.057 5.406-0.569 8.424-1.082 3.072-0.91 7.057-2.163 9.332-2.675 1.936-0.456 2.79-0.341 2.562 0.341-0.456-1.138-0.228-1.821 0.229-2.049 0.455-0.285 1.593 0.114 2.788 0.569 1.082 0.342 2.788 0.911 3.813 1.708 0.796 0.74 1.366 1.537 1.479 2.619l1.195 1.422c1.365-0.17 2.674 0.171 3.699 0.398 0.967 0.228 2.447 0.284 2.447 1.48-0.057 1.138-1.082 2.845-2.846 5.349 0.228 0.569 0.514 1.196 0.854 2.106 0.284 0.74 1.252 2.22 0.909 2.902-0.512 0.57-1.82 0.228-3.471 0.513-1.822-0.057-4.496-0.114-6.944 0.512-2.504 0.57-5.121 1.708-7.854 3.415l-18.098-4.154c0.46-4.439 0.98-8.879 1.49-13.374z" fill="#C19B86"/>
    <path d="m163.34 72.87c1.936-0.74 4.326-1.537 7.172-2.163 2.789-0.626 6.488-1.309 9.789-1.821 3.129-0.74 7.797-1.708 8.936-1.594 0.797 0.114-3.414 1.594-3.188 2.048 0.283 0.114 4.383-0.682 5.064-0.626 0.514 0.285-1.65 0.626-1.877 1.48-0.342 0.74-0.455 1.196-0.113 1.992 0.057 0.398 2.048 0.512 1.365 0.967-0.91 0.342-4.838 1.024-5.635 1.594-0.968 0.398-0.398 0.967 0.854 1.081 1.252-0.227 5.066-0.967 6.602-1.366 1.195-0.341 1.252-1.024 1.937-0.967 0.625-0.171 1.877-0.114 2.218 0.398 0.172 0.398 0.172 1.593-0.625 2.049-1.025 0.284-2.902-0.114-4.725 0.113-2.048 0.171-4.211 0.398-6.26 1.139-2.22 0.683-3.928 1.423-5.977 2.675-6.031-1.195-10.243-2.333-12.861-3.415-2.72-1.251-3.4-2.447-2.66-3.584z" fill="#AE7F61"/>
    <path d="m169.66 74.35c-0.284-0.399 2.335 1.252 3.928 1.252 1.536-0.285 3.928-1.48 5.407-1.822 1.479-0.398 3.357-0.113 3.186 0.228-0.398 0.513-3.812 1.594-5.008 2.334-1.252 0.512-1.536 1.309-2.617 1.081-1.32-0.456-4.85-2.789-4.9-3.073z" fill="#8B5D46"/>
    <path d="m180.07 76.682c0.398-0.682 1.765-1.365 2.334-1.365 0.342 0.057 0.455 0.854 0.115 1.479-0.57 0.341-2.164 1.082-2.563 1.138-0.51-0.17-0.4-0.796 0.11-1.252z" fill="#8B5D46"/>
    <path d="m186.9 70.707c0.284 0.114 1.252 1.65 0.91 2.163-0.568 0.398-2.446 0.341-3.472 0.284-1.194-0.284-3.187-1.138-2.902-1.252 0.114-0.114 3.301 0.342 4.269 0.285 0.85-0.285 0.74-1.594 1.19-1.48z" fill="#8B5D46"/>
    <path d="m190.49 62.739c-1.082-1.024-2.105-1.764-3.073-2.219-1.025-0.57-2.676-0.398-3.188-0.57-0.682-0.284-0.967-0.626-0.852-1.024-0.058-0.512-0.229-1.138 0.112-1.423 0.114-0.456-0.228-0.626 0.739-0.513 0.854 0.057 2.676 0.627 3.928 1.082 0.969 0.342 1.822 0.797 2.562 1.366 0.569 0.456 1.138 1.252 1.479 1.936 0.285 0.739 0.568 1.195 0.626 1.991-0.513 0.341-0.683 0.456-1.138 0.341-0.46-0.113-0.86-0.512-1.2-0.967z" fill="#fff"/>
    <path d="m166.36 68.26c0.854-0.74 2.447-1.196 3.699-1.594 1.252-0.512 3.415-1.195 4.042-0.967 0.342 0.113-1.14 1.422-1.14 1.935-0.056 0.341 1.993 0.113 0.627 0.626-1.65 0.455-8.538 1.764-9.675 1.935-1.09-0.057 1.18-1.424 2.44-1.935z" fill="#E8BDB1"/>
    <path d="m190.09 64.219c1.309-0.114 3.188-0.114 4.553 0.228 1.195 0.114 2.391 0.512 2.903 0.967 0.341 0.342-0.171 1.537-0.456 1.594-0.341 0.113-0.171-1.309-1.707-1.423-1.879-0.171-7.968-0.455-8.822-0.398-0.79-0.456 2-0.855 3.54-0.968z" fill="#E8BDB1"/>
    <path d="m183.77 61.259c-0.685-0.228-1.424-0.797-1.994-0.854-0.854 0-1.82 0.285-2.902 0.854-1.309 0.341-4.438 1.422-4.154 1.708 0.398 0 4.326-0.911 5.862-0.968 1.252-0.227 0.911 0.456 1.821 0.513 0.797-0.113 2.105-0.569 3.074-0.513 0.682-0.056 1.992 0.74 2.161 0.627 0.058-0.228-0.567-1.822-1.194-1.935-0.74-0.343-2 0.511-2.68 0.568z" fill="#E8BDB1"/>
    <path d="m75.124 303.54c0 3.301-0.284 6.999-0.626 11.553-0.569 4.383-1.479 10.416-1.821 15.026-0.284 4.21-0.512 7.113-0.228 11.779-0.113 4.61 0.171 9.961 0.854 16.506 0.74 6.487 2.163 15.365 3.643 22.708 1.309 7.171 3.244 14.968 4.268 20.546 0.854 5.576 1.252 9.504 1.196 12.406l17.927-0.398c0.626-6.317 1.024-12.008 1.195-17.073 0.057-5.352-0.682-8.936-0.228-13.603 0.285-4.895 2.504-10.017 2.675-14.058 0.114-3.927-1.024-5.294-1.65-9.561-0.683-4.61-1.423-10.074-2.219-17.075 5.065 3.984 9.731 7.912 14.228 12.01 4.382 3.926 7.797 7.91 12.407 12.18 4.61 4.324 9.561 9.105 14.398 13.031 4.553 3.529 9.619 6.147 13.204 9.164 3.415 2.846 5.634 6.032 7.968 8.708 2.333 2.674 4.211 5.122 5.861 7.341l14.854-13.203c-4.723-5.406-8.99-10.813-12.805-16.675-3.984-5.862-6.999-13.432-10.357-18.327-3.415-5.179-5.635-7.058-10.188-11.553-4.951-4.61-14.058-11.895-17.87-15.252-3.871-3.473-3.245-3.131-4.041-4.896-0.854-1.82-0.854-3.927-0.456-6.089-13.943-2.846-23.96-5.75-30.676-8.707-6.716-3.246-5.806-8.197-9.334-9.335-3.628-1.05-7.612-0.31-12.166 2.82z" fill="#C19B86"/>
    <path d="m86.166 410.08c0.739-2.162 0.854-4.78 0.341-7.854-0.796-3.301-2.789-8.081-3.756-11.04-0.911-3.132-1.593-4.384-1.821-7.286-0.455-3.129-0.342-7.626-0.569-10.87-0.341-3.301-0.91-6.089-1.48-8.991-0.683-3.188-2.39-7.059-2.276-8.993 0-1.879 1.822-4.098 2.618-2.277 0.797 1.822 1.082 8.937 1.936 12.977 0.796 3.756 1.764 6.83 2.276 10.073 0.113 2.96-1.024 5.578-0.569 8.765 0.398 3.131 2.333 6.432 3.414 10.586 1.082 4.041 1.765 10.984 2.276 14.002 0.342 2.788 0.114 4.04-0.456 3.301-0.626-0.8-1.252-1.59-1.934-2.39z" fill="#E8BDB1"/>
    <path d="m86.052 342.98c0.285-1.879 0.911-3.357 1.252-2.277 0.17 1.083 0.285 4.839 0.57 7.969 0.056 2.732 0.113 6.203 1.024 9.105 0.967 2.789 3.073 4.609 4.781 7.626 1.593 3.017 3.87 7.172 4.667 9.618 0.512 2.106 0.512 5.294-0.683 3.644-1.594-1.879-5.008-10.927-6.943-13.943-1.878-2.903-3.13-1.879-3.984-3.757-0.911-2.22-1.366-6.203-1.366-9.105-0.058-3.25 0.17-7 0.682-8.88z" fill="#E8BDB1"/>
    <path d="m162.71 367.22c-0.626 0.968-10.301-6.773-14.286-10.245-4.154-3.413-7.569-7.114-10.016-10.472-2.562-3.585-5.691-9.562-5.008-10.472 0.683-1.024 5.293 2.618 8.537 5.008 2.902 2.22 5.862 4.439 9.333 8.879 3.54 4.37 11.68 15.93 11.45 17.29z" fill="#E8BDB1"/>
    <path d="m169.32 377.18c1.309 0.57 4.496 4.155 6.26 6.146 1.65 1.879 2.79 4.724 3.188 5.692 0.112 0.854-0.569 0-1.595-0.342-1.138-0.569-3.756-1.595-4.553-2.618-0.854-1.195 0.569-2.96-0.113-3.984-0.91-1.081-3.7-2.276-4.211-2.96-0.59-0.86-0.25-2.68 1.01-1.94z" fill="#E8BDB1"/>
    <path d="m98.174 329.89c0.342-0.058 3.245 2.334 3.415 3.188 0 0.568-2.219 0.967-2.732 0.568-0.684-0.69-1.196-3.76-0.684-3.76z" fill="#E8BDB1"/>
    <path d="m111.49 323.97c2.219 4.725 3.984 8.254 5.52 10.358 1.309 2.105 2.448 2.675 3.187 2.392 0.74-0.398 0.285-4.668 1.48-4.896 1.024-0.397 4.382 2.335 5.464 2.505 0.967 0-0.114-2.219 0.91-2.276 0.911-0.283 4.725 1.822 4.667 1.252-0.284-0.854-4.268-2.902-5.577-5.236-1.367-2.39-2.049-4.951-2.277-8.309l-15.196-3.187c0.58 2.47 1.21 4.91 1.83 7.42z" fill="#E8BDB1"/>
    <path d="m101.48 376.84c-1.365-4.326-2.731-7.797-4.553-11.042-1.878-3.301-4.838-3.471-6.033-7.968-1.365-4.779-1.139-15.936-1.935-19.406-1.024-3.415-2.049-2.618-3.756-0.91-1.992 1.479-4.78 7.569-6.829 10.13-2.106 2.447-3.756 4.155-5.179 4.895-0.57-5.635-0.684-10.586-0.57-15.48-0.057-4.894 0.626-8.593 1.139-13.317 0.398-4.895 1.537-11.838 1.878-15.139 0.228-3.357 0.17-4.951-0.17-4.781 1.65-1.422 3.528-1.877 5.862-1.365 2.276 0.568 5.293 2.562 7.74 4.439 2.333 1.65 5.008 4.097 6.033 5.577 0.854 1.364 0.626 2.163-0.684 2.617-0.057 1.821-0.228 3.87 0.114 6.147 0.171 2.105 0.91 5.235 1.138 7.171 0.057 1.763-0.569 2.562-0.569 3.927-0.057 1.024-0.341 1.879 0.455 3.414 0.683 1.594 2.049 3.415 3.87 5.92 0.057 2.504 0 4.894 0.456 7.626 0.398 2.617 0.683 5.35 1.48 8.195 0.456 2.732 1.65 6.317 2.048 8.537 0.285 2.106 0.171 2.163-0.113 4.098-0.3 1.75-0.98 3.91-1.83 6.7z" fill="#AE7F61"/>
    <path d="m83.946 316.91c0.796 2.334 1.935 4.154 2.959 6.146 1.082 1.595 2.845 3.303 3.528 4.896 0.398 1.536-0.398 3.187 0 5.178 0.456 1.993 2.106 3.985 2.732 7.059 0.398 3.016-0.91 10.983 0 11.154 0.797-0.057 2.163-3.699 4.553-11.154-1.252-1.707-2.048-3.188-2.617-4.212-0.684-1.139-0.911-1.537-0.911-2.504 0-1.309 0.57-2.847 0.797-4.383 0-1.65-0.513-2.39-0.683-4.667-0.398-2.333-0.626-5.292-1.139-8.879-3.072 0.44-6.145 0.9-9.219 1.35z" fill="#8B5D46"/>
    <path d="m99.313 318.05c0.398 2.504 1.309 4.325 2.504 5.236 1.195 0.91 3.415 1.366 4.667 0.455 1.024-1.139 1.593-3.131 1.707-6.602l-8.65-2.391-0.455 2.391c0.047 0.28 0.103 0.57 0.218 0.91z" fill="#AE7F61"/>
    <path d="m99.768 339.39c-0.74-0.568-2.05-3.129-2.391-3.983-0.284-0.796 0.057-0.911 0.796-0.569 0.513 0.398 2.333 1.936 2.619 2.846 0.12 0.79-0.45 1.87-1.022 1.7z" fill="#AE7F61"/>
    <path d="m106.6 330.8c-0.456 0.115 2.219 2.676 3.643 4.838 1.081 1.992 3.472 7.456 3.87 7.399 0.285-0.342-0.17-6.489-1.365-8.538-1.42-2.11-5.74-3.93-6.14-3.7z" fill="#AE7F61"/>
    <path d="m102.04 343.26c1.422 1.937 5.52 4.269 9.22 7.627 3.529 3.073 8.594 7.627 11.667 10.586 2.789 2.562 3.813 3.983 5.919 6.032s3.87 4.042 6.374 6.203c2.333 1.993 4.952 4.555 7.626 6.374 2.504 1.65 4.781 2.79 7.057 4.326 2.276 1.594 4.325 4.098 5.919 4.895 1.252 0.569 3.472 0.283 1.821-1.31-1.878-1.707-9.903-6.203-12.635-8.879-2.903-2.902-1.992-5.292-4.325-7.854-2.618-2.674-6.944-4.779-10.358-7.627-3.472-3.187-9.164-8.707-10.017-10.186-1.081-1.367 5.123 2.845 4.553 1.65-0.683-1.424-5.862-8.252-7.854-9.732-1.992-1.765-1.878 0.796-4.041 0-2.504-1.024-8.082-4.668-9.903-5.009-2-0.27-2.34 0.98-1.04 2.91z" fill="#AE7F61"/>
    <path d="m128.96 351.51c0.513 1.595 7.854 8.48 11.952 12.351 4.098 3.699 10.87 9.676 12.407 10.244 1.138 0.229-2.391-5.862-4.439-7.968-2.049-2.276-5.463-2.731-7.399-4.666-1.878-2.105-2.732-5.406-4.553-7.057-2.27-1.75-8.59-4.54-7.97-2.89z" fill="#AE7F61"/>
    <path d="m174.78 397.16c-5.689-5.806-8.592-8.536-8.082-8.822 0.456-0.341 3.701 2.392 10.359 7.57-0.74 0.39-1.48 0.79-2.28 1.25z" fill="#AE7F61"/>
    <path d="m82.921 428.18c-0.228-1.65-0.398-3.017-0.285-4.098 0.057-1.081 0.683-1.025 0.569-2.676-0.341-2.049-1.935-5.975-1.935-7.796-0.285-1.65-0.569-1.822 1.366-2.276 2.049-0.684 7.626-1.309 10.814-1.253 2.959 0 6.488 0.569 7.74 1.707 1.082 0.911-0.398 2.392-0.512 4.44-0.341 2.105-0.854 5.008-0.626 7.398 0.285 2.162 1.765 3.642 2.276 5.521 0.342 1.65 0.398 3.187 0.171 4.609 1.024 0.284 1.764 1.139 2.447 2.562 0.626 1.31 0.967 3.699 1.252 5.634 0.114 1.707 0.114 3.415 0 4.896 0.456-0.285 0.797-0.057 1.024 0.455 0.228 0.568 0.228 1.594 0.228 2.846-0.228 1.023 0.626 2.617-0.513 3.471-1.309 0.798-3.529 0.968-6.886 0.968-2.334-0.114-4.724-0.17-7.171 0.058-2.675 0.057-6.033 0.91-7.684 0.796-1.65-0.227-2.162-0.91-1.764-2.049-1.196-0.796-2.106-1.593-2.504-2.618-0.398-1.023-0.342-1.309-0.057-3.471 0.114-2.276 0.285-5.806 0.74-10.358 0.171-0.113 0.285-0.854 0.57-2.219 0.23-1.55 0.4-3.65 0.741-6.55z" fill="#F0F0F0"/>
    <path d="m82.808 431.02c-0.626-0.453-1.31-0.511-2.276-0.17-1.252 0.17-2.619 0.74-3.643 1.708-0.967 0.797-2.048 2.788-1.708 3.813 0.228 0.909 1.024 1.536 2.846 1.877-1.537 1.424-2.277 2.39-2.448 2.902-0.341 0.342 0.17 0.57 1.309-0.398 1.082-1.194 3.699-4.381 5.691-6.031 1.878-1.708 4.098-3.131 6.203-4.269 2.334 0.114 4.155 0.397 6.147 0.625 1.764 0.114 3.813 1.082 4.838 0.741 1.082-0.343 1.365-1.993 1.308-2.79-0.113-1.081-0.739-2.846-2.504-2.846-2.162-0.057-5.008 0.969-9.391 3.074-2.109 0.58-4.215 1.15-6.377 1.77zm-2.846 1.08c-1.138 0.283-1.821 0.682-2.276 1.422-0.683 0.74-0.683 2.05-0.626 2.847 0.228 0.625 0.512 0.966 1.479 1.023 0.683-0.797 1.082-1.536 1.821-2.219 0.683-0.798 1.081-1.424 1.822-2.105-0.741-0.28-1.48-0.62-2.22-0.96zm11.61-2.9c0.854-0.512 3.756-1.366 5.179-1.65 1.252-0.397 2.048-0.397 2.618 0 0.512 0.284 0.341 1.365 0.398 1.935-0.057 0.513 0.398 0.911-0.797 1.195-1.309-0.058-6.033-0.911-7.114-1.023-1.137-0.29-1.308-0.23-0.284-0.46z"/>
    <path d="m80.532 447.53c0.113-1.822 0.17-3.473 0.398-5.407 0.171-2.048 0.228-3.756 0.626-5.976 0.284-2.275 0.683-4.78 1.195-7.513 0.796-1.593 2.048-2.96 3.528-3.87 1.537-1.252 3.585-2.447 5.464-2.049 1.593 0.455 2.674 2.334 4.553 4.724 1.935 2.333 4.724 6.204 6.375 8.31 1.252 1.707 1.708 1.48 1.821 2.618 0.114 1.081-0.455 4.382-0.854 4.438-0.569-0.227-1.366-3.301-2.618-4.609-1.537-1.479-3.756-3.072-5.749-3.016-2.049 0-3.642 1.081-6.09 3.244-2.56 2.06-5.292 5.02-8.649 9.12z"/>
    <path d="m83.206 453.44c2.276-2.447 4.496-4.44 6.887-5.977 2.333-1.593 5.122-2.959 7.057-3.472 1.65-0.683 2.163-0.511 3.7-0.17 1.593 0.17 3.187 1.023 5.463 1.935l0.114 0.513c0.284-0.114 0.455 0 0.739 0.796 0.171 0.57 0.456 1.822 0.626 3.301-1.934-1.194-3.358-2.162-4.894-2.674-1.537-0.627-2.048-1.48-3.927-1.024-2.219 0.283-5.52 1.593-8.139 3.073-2.675 1.365-5.064 3.13-7.398 5.292-0.059-0.51-0.116-1.03-0.23-1.6z" fill="#404040"/>
    <path d="m83.604 454.7c0.057-0.398 1.082-1.252 2.845-2.334 1.708-1.195 5.18-3.643 7.797-4.496 2.562-1.023 5.123-1.65 7.228-1.422 1.765 0.228 3.358 1.536 4.326 2.39 0.91 0.626 1.65 0.969 1.764 1.253 0.797 1.366 0.797 2.332 0.228 3.129-0.739 0.569-1.821 1.025-4.097 1.366-2.675 0.172-7.399 0.058-10.415 0.284-3.017 0.171-5.919 0.741-7.399 0.798-1.532-0.01-2.499-0.41-2.272-0.97z"/>
    <path d="m82.41 412.35c0.284 0.057 0.967 1.536 2.049 2.902 0.854 1.024 3.016 3.243 3.415 4.269 0.17 0.854-1.139 1.194-1.765 1.877-0.797 0.685-1.992 2.504-2.276 2.618-0.398-0.114 0.113-1.479 0.228-2.332-0.228-0.911-0.285-1.48-0.626-2.562-0.513-1.252-0.968-3.472-1.139-4.496-0.342-1.2-0.228-2.39 0.114-2.28z" fill="#C0C0C0"/>
    <path d="m81.897 447.64c0.911-1.14 2.106-2.392 3.585-3.529 1.537-1.479 4.325-3.473 5.293-3.757 0.626-0.283-1.196 1.367-1.082 2.335-0.057 0.739 0.569 1.82 1.423 2.788-1.537 0.683-3.017 1.707-4.212 2.846-1.309 1.082-2.504 2.504-3.585 4.04-0.91-0.683-1.366-1.479-1.593-2.161-0.227-0.8-0.17-1.65 0.171-2.56z" fill="#C0C0C0"/>
    <path d="m99.37 419.58c0 1.252 0.17 4.041-0.342 4.837-0.683 0.513-2.732-1.138-3.529-1.422-0.967-0.343-1.708-0.798-1.593-0.91-0.057-0.286 1.48-0.513 2.162-0.685 0.741-0.284 1.367-0.17 1.878-0.739 0.114-0.625-0.512-2.674-0.341-3.072 0.057-0.569 0.626-0.513 1.024-0.057 0.228 0.23 0.626 0.91 0.741 2.05z" fill="#C0C0C0"/>
    <path d="m182.01 389.3c-1.082-0.228-2.561 0.114-4.439 1.252-2.105 1.024-5.178 2.845-7.057 5.236-1.764 2.219-3.072 5.121-3.699 8.479 1.194 2.105 2.902 4.667 5.805 7.684 2.789 2.788 6.944 6.942 10.7 10.073 3.471 3.017 7.569 5.805 10.757 8.593 3.016 2.619 5.635 4.725 8.082 7.627 2.504 2.732 4.836 6.944 6.771 9.334 1.652 2.106 2.163 3.187 3.7 4.098 1.65 0.569 3.471 0.911 5.236 0.797 1.423-0.058 2.617-0.398 3.586-1.023-0.229-5.237-0.57-9.847-1.025-13.83-0.627-3.984-1.025-6.83-2.277-10.074-1.479-3.301-4.098-6.658-5.69-9.847-1.65-3.357-3.017-7.057-4.097-10.017-1.195-3.129-1.31-5.234-2.791-8.309-1.593-3.472-5.063-8.765-6.486-10.813-1.594-1.879-1.765-1.082-2.96-0.682-1.423 0.055-3.301 0.966-5.009 1.877-1.99 0.911-3.641 1.935-5.805 3.301-0.569-1.023-1.024-1.822-1.593-2.39-0.64-0.68-1.21-1.14-1.72-1.37z" fill="#F0F0F0"/>
    <path d="m197.43 387.88c0.398-0.969 3.017-2.221 4.326-2.221 0.908-0.114 0.796 0.342 1.877 1.82 1.082 1.424 2.561 3.644 4.439 6.66 1.537 2.846 4.609 8.081 5.293 10.243 0.398 1.879-1.594 0.513-2.049 1.367-0.627 0.455-1.537 1.08-0.968 2.73 0.569 1.538 2.163 3.985 4.325 7.343 2.049 3.357 5.577 8.252 7.513 12.464 1.708 3.982 2.674 7.684 3.13 11.325 0.285 3.473-0.568 7.513-0.797 9.676-0.284 1.82-0.398 1.82-0.797 2.163-0.739 0.227-1.821 0.455-2.332 0-0.57-0.513-0.456-1.083-0.514-3.017-0.283-2.277-0.229-5.806-0.682-9.277-0.513-3.642-1.424-7.854-2.504-11.098-1.252-3.131-3.246-5.578-4.44-7.798-1.081-2.447-2.276-4.154-2.96-6.43-1.08-2.392-1.991-4.896-2.959-7.515-0.911-2.73-1.65-6.031-2.674-8.593-1.31-2.846-3.416-5.521-4.553-7.171-1.27-1.69-3.03-1.86-2.69-2.66z"/>
    <path d="m198.68 387.88c-0.284-0.854 1.138-1.31 1.877-1.367 0.513-0.171 0.4-0.854 1.652 0.797 1.308 1.536 4.098 5.862 5.52 8.594 1.082 2.504 2.049 7.057 1.821 7.057-0.398-0.341-1.879-5.121-3.131-7.284-1.308-2.105-3.413-3.357-4.553-4.609-1.37-1.37-3.02-2.51-3.19-3.19z" fill="#404040"/>
    <path d="m190.83 416.28c-0.172-1.196 0.682-3.131 0.398-5.577-0.455-2.733-1.992-5.977-2.846-8.879-1.025-2.788-2.959-8.31-2.504-7.569 0.682 0.569 4.211 8.366 5.748 11.325 1.023 2.79 1.593 3.87 1.707 5.862-0.057 1.936-0.627 4.609-1.025 5.578-0.52 0.57-1.38 0.4-1.49-0.74z" fill="#C0C0C0"/>
    <path d="m167.84 403.93c1.364-2.674 2.332-3.983 2.902-4.154 0.398-0.17 0.112 1.991 0.455 3.187 0.341 1.025 0.797 2.22 1.594 2.959 0.682 0.57 1.707 0.114 2.219 0.854 0.342 0.455-0.74 2.163-0.171 2.675 0.284 0.513 1.195 1.594 2.731 0.398 1.366-1.366 5.521-7.968 6.317-8.423 0.569-0.513-1.138 2.902-1.82 5.008-0.797 1.879-2.277 5.065-2.049 6.261 0.112 0.968 2.161 0.057 3.301-0.341 0.909-0.57 2.505-3.358 2.788-2.903 0.172 0.228-1.479 3.983-1.424 4.895 0.115 0.797 0.742 0.057 1.65 0 0.685-0.284 2.676-1.935 2.904-1.195 0.113 0.685-0.798 3.587-1.652 5.18-0.908 1.479-2.275 2.562-3.868 3.471-1.538-1.194-2.902-2.617-4.724-4.267-1.766-1.708-3.871-3.415-5.636-5.578-1.94-2.28-3.7-4.96-5.52-8.03z" fill="#C0C0C0"/>
    <path d="m210.29 412.98c-1.08 0.74-2.219 1.195-3.642 1.365-1.536 0.114-3.301 0.341-5.065-0.625-1.707-0.969-3.529-3.074-5.235-5.692-0.229 3.472-0.569 6.432-0.798 8.651-0.227 2.219 0.057 3.415-1.139 4.895-1.479 1.309-3.869 2.561-7.397 3.529 1.422-0.57 2.446-1.708 2.845-3.188 0.398-1.536 0.456-5.464-0.455-6.089-1.195-0.968-4.951 0-5.748 1.365-0.854 1.366-0.171 3.302 1.422 6.432-1.82-0.114-3.413 0.626-4.324 1.765-1.138 1.08-2.39 4.325-1.764 5.349 0.512 0.797 3.869 1.253 5.234 0.513 1.197-0.854 2.051-2.561 2.334-5.35 0.342-0.229 1.081-0.057 2.221 0.74 0.967 0.739 2.617 1.991 4.268 3.527 1.707 1.366 3.586 3.245 5.406 4.953 1.537 1.479 3.017 3.357 4.439 4.553 1.31 1.023 3.018 2.845 3.814 2.163 0.738-0.911 0.625-4.27 0.567-7.002-0.284-2.845-1.763-6.716-1.593-9.39 0.229-2.846 1.537-5.122 2.846-6.602 0.967-1.537 2.447-2.22 3.813-2.277-0.66-1.2-1.34-2.39-2.03-3.59zm-23.9 10.81c-0.909-0.057-2.105-3.357-2.049-4.44-0.057-1.138 1.424-2.048 2.277-2.105 0.683-0.398 2.447-0.057 2.447 1.025-0.18 1.15-1.89 5.19-2.68 5.53zm-2.28 0.86c-0.627-0.285-2.447 1.708-2.846 2.902-0.569 0.967-0.285 2.163 0.228 2.675 0.398 0.343 1.991 0.114 2.561-0.683 0.35-1.08 0.52-4.55 0.06-4.89z"/>
    <path d="m206.19 442.69c0.627 1.08 1.025 1.08 1.424-0.229 0.17-1.536-0.057-6.773 0.625-7.797 0.627-1.139 2.164 2.106 3.301 1.82 0.911-0.398 1.48-2.788 2.619-3.471 1.08-0.854 2.277-1.024 3.813-0.968 0.854 2.676 1.31 5.521 1.367 7.911-0.115 2.446-1.252 5.18-1.197 6.887 0.172 1.365 1.367 1.65 1.596 2.39-0.115 0.683-0.57 1.708-1.596 2.221-1.138 0.511-3.243 0.455-4.553 0.056-1.479-0.568-2.674-2.391-3.813-3.699-1.25-1.48-2.45-3.19-3.59-5.12z" fill="#C0C0C0"/>
    <path d="m218.49 426.13c-0.115 0.341 1.593 3.017 2.275 6.26 0.569 3.188 1.138 10.813 1.48 11.896 0.227 0.683 0.17-4.609 0.057-6.887-0.229-2.39-0.513-4.951-1.082-6.773-0.8-1.94-2.73-4.9-2.73-4.5z" fill="#404040"/>
    <path d="m132.38 16.298c-1.708-0.342-3.472-1.252-5.065-2.504-1.593-1.365-4.269-3.13-4.724-5.293s-0.114-6.544 1.252-7.683c1.081-1.422 2.39-0.796 5.463 0.114 2.959 1.025 7.057 2.561 12.293 5.463 4.155-1.935 7.683-3.414 11.041-4.211 3.13-1.024 5.521-1.536 8.48-0.854 2.846 0.456 6.828 3.302 9.105 4.61 2.164 1.309 3.814 2.391 4.496 3.244 0.57-0.228 1.31-0.113 1.765 0.113 0.513 0.228 1.025 0.968 1.31 1.537 0.057 0.456 0.114 0.797-0.284 1.252 1.138 1.31 2.161 3.017 3.072 5.351 0.796 2.162 1.879 4.496 1.937 8.081-0.058 3.472-0.398 8.992-1.937 12.862-1.765 3.757-4.212 6.886-7.968 9.619-0.854-2.163-2.275-4.554-4.041-7.399-1.934-3.017-4.609-7-6.715-9.789-2.163-2.789-4.041-5.35-5.862-7.228-3.472-0.967-6.603-2.163-10.244-3.813-3.586-1.708-7.171-3.699-10.985-5.976-0.512 0.285-1.138 0.456-1.422 0.967-0.53 0.399-0.7 0.911-0.98 1.537z" fill="#8F8261"/>
    <path d="m129.42 1.615c2.391 1.024 4.553 1.935 6.716 2.959 2.162 0.967 4.097 1.821 6.032 2.789 1.195 0.739 2.276 1.878 3.871 3.642 1.593 1.707 5.122 6.375 4.894 6.545-0.626-0.17-6.203-5.577-7.968-6.545-1.764-0.967-1.764 1.195-2.618 0.968-1.082-0.398-1.309-1.423-3.074-3.074-1.87-1.878-4.49-4.097-7.85-7.284z" fill="#C9C7A1"/>
    <path d="m128.17 1.216c-0.854-0.341-1.65-0.626-2.391-0.398-0.967-0.17-1.708 0.114-2.219 1.082-0.513 1.309-1.252 3.813-0.683 5.748 0.342 1.594 1.935 2.96 3.472 4.326 1.593 1.366 3.244 2.504 5.577 3.642 0.057-0.228 0.341-0.512 0.854-0.854 0.341-0.455 0.911-0.967 1.708-1.536-1.082-0.911-1.822-2.277-2.675-3.472-0.74-1.422-1.594-3.13-2.106-4.496-0.63-1.538-1.15-2.733-1.54-4.042z" fill="#73694F"/>
    <path d="m175.69 37.129c-1.31-3.7-3.188-7.343-5.863-10.928-2.902-3.87-9.504-9.164-10.357-11.042-0.91-1.935 0.854-1.935 5.293 0 2.162-1.309 3.87-2.333 5.748-3.073 1.65-0.967 3.699-1.479 4.609-1.537 0.627 0 1.424 0.171 0 1.423-1.707 1.195-7.512 3.585-8.821 5.179-1.31 1.252-0.228 0.967 1.252 2.902 1.48 1.936 5.521 6.659 7.285 8.253 1.424 1.195 1.821 0.625 2.505-0.398 0.738-1.196 1.65-5.919 2.105-6.033 0.283-0.171 0.171 3.529-0.114 5.18-0.513 1.479-1.765 3.016-1.991 4.61-0.342 1.65 0.967 3.073 0.854 4.496-0.284 1.138-1.082 2.504-1.537 2.789-0.51 0.056-0.68-0.399-0.96-1.821z" fill="#73694F"/>
    <path d="m133.35 59.21c0.285-2.504 0.228-4.154-0.398-5.179-0.74-1.024-1.48-0.171-3.073-0.968-1.822-0.967-5.806-3.301-6.886-4.61-1.082-1.423 0.398-3.188 0.74-4.211 0.285-1.196 0.683-2.105 0.968-2.959 0-1.196-0.342-2.789-0.171-3.472 0.114-0.854 0.456-1.195 1.024-1.252-0.569-0.967-0.74-1.992-0.284-3.073 0.398-1.195 1.195-2.276 2.618-3.471-1.138-0.342-1.878-0.911-2.219-1.708-0.398-0.968-1.082-2.277-0.285-3.074 0.569-0.797 1.878-1.309 3.927-1.536-0.228-1.366-0.114-2.562 0.114-4.041 0.113-1.423 0.739-3.87 1.252-4.497 0.398-0.74 0.911-0.569 1.537 0.513l2.675-2.447c1.309 1.081 2.959 2.276 4.724 3.358 1.65 0.854 3.301 1.764 6.033 2.959 2.846 1.081 6.033 2.39 10.416 3.927 0.682 0.569 1.821 1.764 3.415 3.586 1.479 1.821 3.471 4.211 5.748 7.398 1.366-0.228 2.504 0 3.187 0.456 0.627 0.341 0.797 1.082 0.968 2.22 0 1.081-0.113 3.471-0.113 4.325-0.058 0.626-0.058 0.626 0 0 1.309 1.138 2.162 2.447 2.789 3.472 0.568 1.139 0.683 1.992 0.568 3.017-1.365 0.739-2.219 1.935-3.187 3.585-0.968 1.651-1.593 4.724-2.106 6.375-0.512 1.422-0.797 2.22-0.854 2.391-0.627 1.252-1.195 2.958-1.707 4.894-0.683 1.935-1.025 4.098-1.65 6.716-3.813-2.106-7.399-3.756-10.757-4.724-3.472-1.082-6.659-0.057-9.789-1.309-3.18-1.482-6.25-3.473-9.21-6.661z" fill="#C19B86"/>
    <path d="m125.66 38.096c-0.74-0.228-0.797-0.398-0.797-0.513-0.228-0.285 0.057-0.398 0.228-0.569 0-0.171 0.569-0.285 0.626-0.341 0.113-0.228-0.285-0.513-0.114-0.627-0.228-0.284-0.228-0.455 0-0.512 0.114-0.285 0.626-0.285 1.537 0 0.91 0.341 2.333 1.139 3.585 2.163 1.024 0.682 2.39 2.731 2.333 2.845-0.456-0.057-2.619-1.48-3.871-1.878-1.2-0.397-2.97-0.512-3.54-0.568z" fill="#7F5964"/>
    <path d="m126.63 37.129c0.228 0.056 0.513 0.056 1.082 0.227 0.455 0.057 1.765 0.741 1.935 0.741-0.17-0.171-0.854-0.684-1.366-0.854-0.398-0.285-0.854-0.456-1.138-0.513-0.341-0.056-1.024-0.228-0.968-0.056-0.1 0.055 0.13 0.284 0.47 0.455z" fill="#73403F"/>
    <path d="m127.88 26.542c-0.569-0.398-1.593 0.17-1.536-0.057-0.057-0.341 0.341-1.252 0.967-1.423 0.341-0.455 1.195-0.398 1.708-0.057 0.456 0.342 0.626 2.05 1.138 2.732 0.399 0.626 1.48 1.252 1.48 1.423-0.228-0.057-1.536-0.797-2.162-1.138-0.57-0.626-1.26-1.195-1.6-1.48z" fill="#E8BDB1"/>
    <path d="m128.11 29.161c-0.341-0.455-1.308-1.081-1.138-1.195 0.114-0.341 1.423-0.171 1.935 0.057 0.171 0.228-0.284 0.967 0.399 1.593 0.569 0.512 3.472 1.195 3.87 1.594 0.285 0.171-0.455 0-1.537 0.341-1.081 0.341-4.553 1.366-4.951 1.309-0.513-0.228 1.422-2.105 1.821-2.561 0.01-0.683-0.05-0.854-0.39-1.138z" fill="#AE7F61"/>
    <path d="m130.16 22.672c0.57-0.739 0.854-1.252 1.48-1.536 0.398-0.626 1.139-0.796 1.537-0.74 0.171 0.114 0.456 0.513 0.626 1.423 0.114 0.797 0.114 2.618 0.456 3.7 0.284 0.91 0.398 1.764 1.195 2.333 0.569 0.398 1.082 0.967 2.846 0.854 1.594-0.228 4.041-0.626 7.114-1.65-0.398 0.341-0.398 0.796 0.228 1.138 0.455 0.285 1.878 0.513 2.959 0.911 0.968 0.284 1.992 0.626 3.528 1.252 1.423 0.455 3.585 1.422 5.407 2.219 1.65 0.683 3.244 1.537 4.781 2.333 0.17 0.341 0 0.626-0.968 0.626-1.024-0.057-2.96-0.398-4.496-0.797-1.65-0.626-3.415-2.219-4.837-2.618-1.593-0.626-3.188-0.341-4.098-0.455-1.138-0.399-0.171-0.74-1.479-0.797-1.423-0.113-4.382 0.342-6.034 0.285-1.65-0.285-2.788-1.309-3.642-1.309-0.968-0.113-1.024 0.683-1.48 0.854-0.683 0-1.48-0.228-1.935-0.682-0.626-0.513-0.74-1.765-1.195-2.22-0.512-0.683-1.366-0.569-1.479-1.195-0.228-0.683 0.456-1.878 0.512-2.504-0.12-0.571-0.46-1.254-1.03-1.425z" fill="#AE7F61"/>
    <path d="m133.74 53.121c1.082-0.285 2.732-1.024 4.952-1.594 2.333-0.91 7.17-2.675 8.138-2.675 0.569-0.057-2.391 1.651-4.041 2.675-1.764 0.968-4.269 1.651-5.749 2.675-1.536 0.967-2.447 1.65-2.958 2.675-0.057-0.456-0.228-0.967-0.285-1.537-0.113-0.682-0.569-1.536-0.455-1.878 0.01-0.399 0.06-0.512 0.4-0.341z" fill="#AE7F61"/>
    <path d="m136.36 56.365c1.309-1.196 3.073-2.333 5.52-3.415 2.333-1.195 6.602-2.504 8.822-3.301 2.105-1.082 3.301-1.65 3.813-2.333 0.854 0.17 1.765 0.284 3.188 0.341 1.081 0.057 3.072 0.113 4.666-0.285 1.594-0.625 3.301-1.593 5.121-3.129-0.739 1.081-1.307 2.39-1.934 4.155-0.854 1.536-1.65 4.268-1.766 5.805 0.058 1.536 2.106 2.675 1.538 3.187-0.796 0.114-4.61-0.227-6.204-1.023-1.65-0.911-2.789-3.074-3.643-3.643-0.91-0.626-1.309 0.285-1.878 0.341-0.74-0.228-0.967-1.308-2.447-0.626-1.708 0.74-5.008 3.245-7.057 5.065-2.163 1.65-4.041 3.472-5.634 5.236-1.139-0.796-2.22-1.479-2.789-2.048-0.683-0.683-1.082-1.196-1.195-1.765 0.056-0.171 0.17-0.569 0.569-0.967 0.23-0.457 0.74-0.913 1.31-1.595z" fill="#AE7F61"/>
    <path d="m141.54 60.235c2.789-1.139 5.293-1.992 7.513-2.562 2.333-0.683 6.089-1.65 5.577-1.138-0.967 0.341-8.252 2.675-10.245 3.699-1.934 0.854-3.13 1.708-1.593 1.935 1.366 0 6.83-0.228 9.619-0.683 2.674-0.398 6.829-1.935 6.317-1.537-0.74 0.285-7.171 2.391-10.073 3.245-3.073 0.797-5.464 1.195-7.626 1.423l-1.651-1.537c0-0.455 0.228-0.796 0.684-1.252 0.29-0.569 0.86-1.024 1.48-1.593z" fill="#AE7F61"/>
    <path d="m157.36 68.032c0.626-0.456 1.31-1.024 2.276-1.48 0.798-0.569 1.822-1.252 3.074-1.821-0.342 0.91-0.797 1.821-1.366 2.504s-1.366 1.252-2.163 1.707c-0.56-0.284-1.19-0.569-1.82-0.91z" fill="#AE7F61"/>
    <path d="m157.71 41.396c0.341-0.626 1.194-1.365 2.333-1.992 0.91-0.739 2.162-1.935 3.3-2.049 0.854-0.398 2.051 0.057 2.732 0.513 0.683 0.512 1.594 1.765 1.422 2.219-0.398 0-3.129-1.024-3.584-0.854-0.683 0.228 0.229 2.049-0.115 2.391-0.682 0.057-2.104-1.082-2.73-0.968-0.57 0-0.57 1.196-0.911 1.594-0.569 0.285-1.765 0.285-2.048 0.228-0.52-0.285-0.8-0.569-0.4-1.082z" fill="#635222"/>
    <path d="m161.63 44.868c-0.455 0.057 1.252-0.284 2.05-0.797 0.909-0.682 2.276-2.675 2.788-2.675 0.342-0.057-0.341 1.708-0.968 2.447-0.8 0.57-3.7 0.911-3.87 1.025z" fill="#635222"/>
    <path d="m156 28.25c-0.626-0.17-3.358-1.992-3.585-2.391-0.341-0.74 0.854-0.797 1.593-0.797 0.512 0.228 1.366 0.513 1.878 1.31 0.28 0.569 0.62 1.708 0.11 1.878z" fill="#E8BDB1"/>
    <path d="m151.96 29.445c-2.618-0.398-4.041-0.854-4.894-1.138-0.74-0.285-0.398-0.911 0.113-0.797 0.228-0.114 1.366 0.057 2.106 0.513 0.683 0.341 1.252 0.739 1.935 1.422h0.74z" fill="#E8BDB1"/>
    <path d="m163.79 35.535c0.456-0.228 1.65-0.341 2.505-0.113 0.741 0.17 1.252 0.682 1.765 1.308 0.455 0.569 0.739 2.22 0.627 2.333-0.344-0.17-1.367-1.708-2.164-2.163-0.854-0.341-2.732-0.171-3.016-0.171-0.63-0.341-0.17-1.024 0.28-1.194z" fill="#E8BDB1"/>
    <path d="m156.51 43.161c-0.512-0.057-1.366 1.48-1.479 1.992-0.114 0.456-0.285 0.398 1.024 0.683 1.081 0 5.918 0.398 6.204 0.284 0.057-0.17-3.984-0.398-4.896-0.91-0.9-0.626-0.67-2.106-0.84-2.049z" fill="#E8BDB1"/>
    <path d="m161.4 41.909c-0.229 0 0.512 1.195 0.91 1.423 0.17-0.057 0.968-0.228 0.854-0.513-0.16-0.341-1.7-1.081-1.76-0.91z" fill="#E8BDB1"/>
    <path d="m164.59 40.087c-0.341 0.171 0.058 0.683 0.285 1.082 0.285 0.114 0.967-0.284 1.139-0.341-0.18-0.342-1.32-0.797-1.43-0.741z" fill="#E8BDB1"/>
    <path d="m134.88 31.551c0.341-0.398 1.024-1.138 1.821-1.138 0.455 0 0.228 0.739 1.765 1.138 1.536 0.228 6.544 0.17 7.796 0.456 1.025 0.228 0.569 0.569-0.91 0.796-1.537 0-6.26-0.512-7.797-0.456-1.708-0.113-1.252 0.285-1.708 0.342-0.626-0.114-0.739-0.57-0.967-0.683-0.21-0.285-0.44-0.228 0.01-0.455z" fill="#E8BDB1"/>
    <path stroke="#000" stroke-width=".036" stroke-miterlimit="10" d="m128.91 23.753c-0.171-0.739-0.228-1.707-0.171-2.675-0.057-1.081 0.228-2.788 0.398-3.585 0.228-0.967 0.398-1.65 0.74-2.049 0.341-0.512 0.626-0.683 1.082-0.74 0.171-0.17 0.171 0.057 0.683 0.683 0.398 0.456 1.537 1.822 2.333 2.562 0.569 0.513 0.796 0.74 1.992 0.911 1.252 0 3.471-0.569 5.122-0.17 1.252 0.17 2.22 1.423 3.358 2.219 0.967 0.626 2.504 1.423 3.301 2.162 0.683 0.74 0.968 1.537 0.854 2.391 2.675 1.48 5.065 3.017 7.626 4.61 2.447 1.537 4.781 3.13 7.228 4.781l-1.194 0.398c-3.131-2.219-6.033-3.927-8.48-5.35-2.619-1.423-4.781-2.561-6.716-3.188-2.959 0.911-5.065 1.821-6.943 2.106-1.822 0.228-2.96 0.456-3.871 0.057-1.082-0.398-1.935-1.252-2.333-2.333-0.512-1.366-0.512-4.041-0.683-4.951-0.398-1.025-0.398-1.196-1.082-0.74-0.81 0.341-1.89 1.308-3.25 2.901z"/>
    <path d="m147.86 25.063c-0.569 0.741-2.391 1.423-4.154 2.049-1.822 0.456-5.293 1.366-6.716 1.196-1.48-0.285-1.878-1.196-2.276-2.277-0.513-1.195-1.252-3.358-0.683-4.325 0.398-1.081 2.106-1.764 3.358-2.048 1.252-0.569 2.39-0.626 3.643-0.398 0.853 0.285 1.423 1.252 2.333 2.049 0.911 0.341 1.935 0.796 2.846 1.365 0.79 0.681 1.93 1.478 1.65 2.389z" fill="#7F4008"/>
    <path d="m135.96 20.851c0.341-0.967 2.219-0.854 3.244-0.967 0.854 0 1.423 0.057 2.163 0.626 0.512 0.228 0.854 0.967 1.708 1.593 0.682 0.569 3.073 1.252 3.244 2.049 0.057 0.626-1.821 2.163-2.562 2.163-0.91-0.228-1.422-2.276-2.447-2.618-1.195-0.342-3.415 0.967-4.269 0.626-0.95-0.512-1.52-2.846-1.07-3.472z" fill="#A16121"/>
    <path d="m144.39 23.583c0.342 0 1.024 0.114 1.196 0.569 0 0.399-0.968 0.968-1.139 1.253-0.455-0.171-0.796-0.854-0.796-1.139-0.23-0.455 0.45-0.683 0.74-0.683z" fill="#F88011"/>
    <path d="m129.13 22.274c-0.512-0.284-0.341-1.593-0.113-2.618 0.228-1.195 0.683-3.245 1.365-3.7 0.513-0.512 0.741 0.456 1.31 1.139 0.398 0.513 1.195 1.537 1.309 2.219-0.114 0.513-0.911 0.513-1.48 1.082-0.85 0.342-1.87 1.992-2.39 1.878z" fill="#7F4008"/>
    <path d="m130.78 17.607c0.057-0.114 0.854 0.91 0.854 1.309-0.341 0.285-0.797 0.968-1.138 0.968-0.342-0.17-0.17-0.854-0.114-1.195-0.05-0.57 0.23-1.082 0.4-1.082z" fill="#A16121"/>
    <path stroke="#C9C7A1" stroke-width=".036" stroke-miterlimit="10" d="m66.587 305.58c0.057-2.617 0.057-5.291 0-8.252-0.17-3.131-0.456-5.577-0.398-9.334 0-3.756 0.114-7.34 0.569-12.918 0.456-5.977 1.252-15.595 1.936-21.4 0.398-5.804 0.968-8.877 1.082-12.918 0.057-4.325-0.911-8.196-0.513-11.837 0.228-3.813 0.968-6.431 1.992-10.074 0.967-3.813 2.219-7.626 3.756-12.066l27.147-2.846 45.587 16.164c-0.113 3.984-0.17 7.513-0.17 10.585-0.17 2.846 0 5.008-0.17 7.57-0.285 2.561-0.569 5.179-1.082 8.082-0.626 2.902-0.854 6.773-1.764 8.764-0.911 1.707-2.049 2.391-3.415 1.82-1.252 4.725-2.219 9.164-2.902 13.318-0.683 3.984-0.796 6.431-1.252 11.098-0.854 4.553-1.822 11.326-2.675 16.391-0.797 5.123-1.651 10.188-2.333 13.432-0.854 2.96-1.65 4.324-2.391 4.324l-1.252 7.57-4.496-0.568c-2.96-0.513-6.034-0.854-8.594-1.252-2.618-0.398-5.065-0.398-7.569-0.911-2.789-0.739-5.862-2.22-8.594-2.675-2.846-0.456-5.407-0.456-7.911 0-2.732 0.398-5.919 2.049-7.57 2.504-1.65 0.171-1.765 0.455-2.333-0.91-0.626-1.594-1.366-5.408-1.764-7.684-0.456-2.39-1.025-4.495-1.252-6.316-1.878 0.455-3.585 0.625-5.578 0.738-2.08 0.01-3.958-0.04-6.121-0.39z" fill="#C9C7A1"/>
    <path d="m73.36 225.34c1.593-2.163 4.496-5.122 8.708-8.423 4.269-3.358 9.618-7.513 16.504-12.008-3.642 0.569-7.285 1.081-11.154 1.536-3.984 0.341-7.797 0.854-12.066 1.082-0.455 0.854-1.138 2.049-1.821 4.439-0.796 2.276-1.935 5.919-2.504 8.764-0.74 2.618-1.195 5.008-1.366 7.171-0.114 1.992 0 3.016 0.341 5.236 0.057 2.219 0.228 4.951 0.285 7.968-0.171 2.561-0.342 4.781-0.74 8.878-0.569 4.269-1.252 11.211-1.593 15.994-0.456 4.438-0.398 7.854-0.513 10.927-0.17 2.845-0.683 4.097-0.626 7.058-0.113 2.959-0.17 6.544 0.057 10.756 0.114 0.229 0.74-0.17 1.65-1.195 0.797-1.309 3.017-4.496 3.813-5.18 0.456-0.568-0.057-1.309 0.228 1.707 0.284 2.902 0.91 7.911 1.65 15.48 0.512 0.114 1.138-0.057 1.878-0.057 0.683-0.113 1.479-0.284 2.39-0.512-0.056-5.236-0.17-9.789-0.341-14.514-0.285-4.723-0.911-9.959-1.024-13.316-0.513-3.586-0.569-6.09-0.398-7.285 0.284-1.139 1.537 0.342 1.992 0.057 0.228-0.797-0.512-2.617-0.057-3.244 0.398-0.513 2.561 0.513 2.333-0.227-0.512-1.082-4.098-3.699-4.837-5.237-0.854-1.65-0.285-3.129 0.398-3.756 0.569-0.739 3.073 0.627 2.903-0.284-0.626-1.082-4.439-3.984-5.293-5.407-0.854-1.593-0.512-3.415 0.341-3.7 0.74-0.398 2.846 2.219 4.098 1.935 0.967-0.512 0.854-2.845 2.504-3.699 1.536-0.911 5.463-1.139 6.716-1.537 0.91-0.626 0.398-1.195 0-1.708-0.513-0.739-3.813-1.366-1.993-1.878 1.878-0.512 12.123-1.138 13.147-1.252 0.626-0.113-5.407-0.113-7.796-0.228-2.334-0.512-5.008-1.536-5.805-2.219-1.025-0.854-1.196-1.878 0.398-1.992 1.536-0.171 6.089 0.342 8.821 1.082 2.505 0.626 3.301 1.878 6.317 2.448 2.675 0.398 9.391 0.626 10.7 0 1.309-0.968-1.48-2.789-2.845-4.554-1.65-1.878-5.008-4.041-6.09-5.862-1.082-1.991-0.398-4.496-0.569-4.894-0.342-0.455-0.285 2.675-1.366 2.618-1.423-0.284-6.033-4.04-5.919-3.585 0.171 0.398 5.634 4.952 6.716 6.204 0.911 0.91-1.65 0.113-1.309 0.455 0.228 0.398 2.049 1.707 2.391 2.39 0 0.513-0.057 1.594-1.708 0.796-1.821-1.024-5.862-5.122-8.366-6.374-2.789-1.537-7.228-2.391-6.716-1.65 0.456 0.796 8.765 4.724 10.244 6.09 1.367 1.081 0 1.138-1.479 1.024-1.764-0.285-8.594-2.732-7.74-2.106 0.854 0.512 9.505 3.813 13.432 5.292 3.699 1.195 7.569 1.708 9.22 2.391 1.252 0.74 1.252 1.082-0.228 1.252-1.366-0.228-4.667-0.74-8.139-1.537-3.756-0.967-9.561-2.731-13.431-3.528-3.984-0.854-7.228-1.48-9.732-1.65-2.561-0.341-4.382-0.285-5.464 0.17 0-0.682 0.171-1.821 0.285-2.788 0.174-1.03 0.288-2.51 0.572-3.82z" fill="#AD9D76"/>
    <path d="m77.628 207.7l16.277-1.422c-0.74 0.911-2.105 1.765-3.472 2.789-1.536 0.91-4.097 2.39-5.463 2.903-1.593 0.17-2.276-1.367-3.358-0.626-1.252 0.739-2.618 4.666-3.642 5.406-1.139 0.456-3.13-0.683-3.13-2.105-0.057-1.48 0.797-3.87 2.788-6.94z" fill="#8F8261"/>
    <path d="m109.16 235.87c-0.456-0.911-3.984-4.098-4.895-4.724-1.024-0.456-0.456 0.626-0.91 1.252-0.57 0.398-1.252 0.797-2.049 0.968-1.082-0.057-2.618-1.139-3.073-1.025-0.626-0.113-0.739 0.456 0.569 1.025 1.31 0.512 5.806 1.593 7.57 2.162 1.65 0.52 3.02 0.86 2.79 0.35z" fill="#8F8261"/>
    <path d="m72.166 236.72c0.17-1.081 0.796-3.472 1.878-3.472 0.967 0 2.276 1.479 3.301 2.902 0.796 1.195 0.911 3.187 1.65 4.439 0.513 1.024 0.854 1.878 2.106 2.333 1.138 0.455 4.723 0.113 5.065 0.512 0.113 0.285-2.106 0.456-3.358 0.968-1.367 0.341-3.586 0.797-4.439 1.366-0.854 0.513-0.74 2.106-1.195 1.935-0.741-0.285-2.163-3.244-2.96-3.643-0.968-0.455-2.163 0.513-2.276 0.456-0.114-0.398 0.171-1.821 1.309-1.878 0.854-0.228 3.756 1.821 4.781 1.765 1.024-0.057 1.309-0.74 1.081-1.822-0.398-1.195-2.333-4.553-3.187-5.008-0.968-0.569-2.105 1.765-2.561 1.765-0.855-0.29-1.253-1.59-1.195-2.62z" fill="#8F8261"/>
    <path d="m77.344 232.62c0.854-0.171 3.87-0.058 5.748 0.341 1.765 0.171 4.782 1.082 5.065 1.423 0.114 0.171-3.187 0.057-3.984 0.284-0.854 0.057-0.512 0.854-0.967 0.854-0.796-0.057-1.821-0.91-2.846-1.024-1.138-0.341-2.447-0.341-3.016-0.626-0.569-0.33-1.081-1.18 0-1.24z" fill="#8F8261"/>
    <path d="m68.921 261.53c0.626-1.479 3.301-3.642 4.325-4.097 0.968-0.456 1.366 0.513 1.196 1.593-0.456 0.911-2.959 2.504-3.586 4.154-0.854 1.652-1.081 4.384-0.911 5.578 0.17 0.797 1.765-0.17 1.935 0.398 0.057 0.684-1.422 2.392-1.821 3.131-0.626 0.456-1.423 0.797-1.537-0.285-0.228-1.422 0.057-5.235 0.228-7.057 0-1.87-0.683-2.21 0.171-3.41z" fill="#8F8261"/>
    <path d="m76.775 285.38c-1.708 1.024-2.619 2.334-2.732 3.7-0.228 1.422 1.423 3.243 1.65 4.553 0 1.194-0.74 1.479-0.911 2.616-0.455 0.969-0.796 1.994-0.796 3.529-0.057 1.479 0.17 3.188 0.683 5.35 0.512 0.115 1.081 0.229 1.707 0.115 0.455-0.115 1.252-0.228 1.764-0.57 0-3.643-0.113-6.716-0.113-9.22-0.114-2.675-0.342-4.496-0.456-6.146-0.227-1.7-0.569-3.01-0.796-3.92z" fill="#8F8261"/>
    <path d="m103.64 204.85c-0.74 2.959-0.854 4.553-0.341 5.634 0.569 0.683 2.219-0.342 3.414-0.228 0.911 0.113 0.968 1.479 2.391 1.65 1.309 0.17 4.837-1.082 5.349-0.683 0.342 0.057-1.536 0.854-3.016 2.391-1.708 1.593-6.659 6.772-6.488 7.171 0.17 0.057 4.781-4.326 7.455-5.691 2.504-1.479 5.065-2.049 7.911-1.708 2.903 0.341 6.716 1.936 8.821 3.87 1.708 1.822 1.196 5.464 2.22 6.545 1.024 0.683 2.618-1.48 3.699-1.252 0.796 0.228 0.854 2.732 1.935 3.13 1.024 0.171 3.471-1.821 4.724-1.365 0.911 0.228 1.537 3.016 2.333 3.528 0.911 0.512 1.935 0.398 3.073-0.341l-0.056-7.171c-14.43-5.13-28.89-10.31-43.4-15.49z" fill="#AD9D76"/>
    <path d="m114.96 222.44c0.398-0.74 1.309-1.252 2.106-1.309 0.512-0.057 0.398 1.423 1.422 1.139 0.911-0.513 3.813-3.643 4.098-3.472 0.057 0-2.277 3.073-3.017 4.154-0.796 0.968-1.252 1.65-1.821 2.05-0.854 0.17-2.276 0.056-2.732-0.342-0.57-0.63-0.51-1.6-0.06-2.22z" fill="#AD9D76"/>
    <path d="m126.74 218.34c0.113 0.398-2.562 6.375-3.643 8.48-1.309 1.821-2.39 3.358-2.789 3.073-0.455-0.512-0.057-3.073 0.968-5.065 1.08-1.93 4.95-6.94 5.46-6.48z" fill="#AD9D76"/>
    <path d="m113.88 235.64c0.854-1.024 4.326-3.074 6.26-3.928 1.594-0.853 2.675-0.113 4.155-0.626 1.423-0.626 3.984-2.447 4.837-2.618 0.74-0.17 0.797 0.683-0.284 1.708-1.366 0.91-5.122 3.073-6.886 3.87-1.651 0.626-2.618-0.341-3.529 0.171-1.252 0.284-2.39 1.992-3.187 2.276-0.85 0.17-2.33-0.11-1.37-0.85z" fill="#AD9D76"/>
    <path d="m116.5 237.57c0.682-0.398 3.528 0 5.463-0.569 1.764-0.796 3.301-3.244 4.838-3.813 1.422-0.683 3.414-0.284 3.528 0.114-0.057 0.284-2.903 0.854-3.928 1.708-1.195 0.682-1.536 1.934-2.788 2.674-1.422 0.74-4.098 1.31-5.18 1.48-1.25 0.07-2.61-1.41-1.93-1.59z" fill="#AD9D76"/>
    <path d="m124.47 245.31c1.991-0.967 3.642-1.536 4.723-1.081 0.967 0.398 1.195 1.707 1.992 3.016 0.74 1.024 0.854 2.674 2.505 3.643 1.423 0.968 5.122 1.309 6.943 1.651 1.878 0.057 3.187-0.115 4.155-0.74-0.228 1.365-0.74 2.333-0.911 3.129-0.398 0.627-0.455 1.195-0.854 1.481-0.569 0.284-1.195 0.341-2.106 0.169-0.626 1.594-1.195 2.903-1.48 4.384-0.512 1.366-0.512 2.674-0.683 3.926-0.341 1.252-0.626 2.22-0.854 3.358-0.512-0.057-1.081-0.057-1.707 0.627-0.683 0.398-0.911 1.479-2.448 2.617-1.821 1.195-7.455 4.439-7.911 4.666-0.569-0.112 3.017-2.39 4.61-3.756 1.593-1.252 2.732-2.504 4.042-4.382 0.91-2.048 2.105-7.171 2.048-8.14-0.17-1.08-1.366 0.797-2.504 1.253-1.195 0.057-3.871 1.538-4.497-0.17-0.683-1.937 0.456-8.366 0.114-10.302-0.683-1.935-2.732-0.854-3.528-1.593-0.85-0.98-1.47-2.23-1.64-3.77z" fill="#AD9D76"/>
    <path d="m127.77 247.76c-0.569-0.74-2.22-1.422-1.878-1.822 0.284-0.626 1.936-1.252 3.188-0.569 1.024 0.74 1.593 3.985 3.244 5.35 1.479 1.195 3.927 1.765 5.805 2.334 1.765 0.398 4.041 0.284 4.838 0.74 0.57 0.227-0.171 0.968-0.456 1.365-0.228 0.398-0.91 0.568-1.423 0.74-0.796-0.229-2.39-0.398-2.617-0.284-0.171 0.228 1.081 0.966 1.308 1.763 0.057 0.741-0.398 2.334-0.682 2.562-0.342-0.17-1.139-1.877-1.765-2.731-1.024-1.024-2.504-2.732-2.902-2.732-0.398-0.227 0.569 2.049 0.512 2.447-0.342 0.4-1.594 0.799-2.22 0.343-0.854-0.627-1.878-2.847-2.163-3.813-0.285-1.082-0.057-2.048 0-2.675-0.342-0.683-0.74-1.081-1.195-1.422-0.57-0.57-1.02-1.03-1.59-1.6z" fill="#8F8261"/>
    <path d="m93.792 244.23c-1.479 0-5.52 1.764-6.602 2.675-1.024 0.796-0.968 1.31 0.398 2.162 1.309 0.57 5.52 1.992 7.342 2.106 1.65 0 3.301-1.65 2.562-1.877-1.082-0.456-7.001-0.171-8.31-0.456-1.536-0.398-0.91-1.366 0.114-1.594 0.854-0.398 5.179-0.171 5.918-0.626 0.683-0.67-0.227-2.49-1.422-2.38z" fill="#AD9D76"/>
    <path d="m98.231 242.98c1.082-0.57 4.382-1.424 4.61-1.025-0.114 0.456-3.927 3.074-4.837 3.472-1.139 0.228-1.252-1.252-1.195-1.593-0.057-0.4 0.341-0.69 1.423-0.86z" fill="#AD9D76"/>
    <path d="m109.33 252.2c-1.593 0.568-9.277 4.269-9.22 4.951 0.113 0.455 8.081-0.627 9.447-1.025 0.911-0.341-2.561-0.511-2.732-0.967-0.057-0.684 1.423-1.992 2.049-2.391 0.45-0.62 1.7-1.24 0.45-0.56z" fill="#AD9D76"/>
    <path d="m99.996 271.21c0.455 1.424-1.822 5.578-0.911 7.4 0.911 1.593 4.78 1.422 6.089 2.332 1.082 0.57 1.878 1.765 1.082 2.277-0.968 0.455-4.269 0.568-6.375 1.195-2.276 0.455-5.008 1.138-6.431 2.049-1.537 0.968-0.797 3.301-2.391 3.243-1.935-0.341-8.423-3.699-8.252-4.837 0.17-1.195 7.74-1.879 9.333-2.732 1.367-1.195-1.195-2.731-0.626-3.699 0.569-1.08 2.959-1.138 3.871-2.39 0.512-1.481 0-5.122 0.682-5.862 0.861-0.8 3.194-0.46 3.935 1.02z" fill="#AD9D76"/>
    <path d="m105.63 296.76c-0.797 0.91-2.106 1.991-3.244 2.617-1.195 0.627-3.87 0.684-3.415 0.398 0.228-0.682 3.756-2.504 5.065-3.472 1.138-1.138 1.65-2.562 1.992-2.504 0.17-0.01 0.11 1.93-0.4 2.95z" fill="#AD9D76"/>
    <path d="m108.3 295.85c1.48-0.055 7.228 0.57 7.398 1.652-0.113 1.139-7.228 4.895-7.739 5.121-0.512-0.057 4.325-4.324 4.382-5.121-0.228-0.854-4.211-0.627-4.895-0.627-0.67-0.45-0.67-1.07 0.86-1.02z" fill="#AD9D76"/>
    <path d="m107.45 304.62c0.341-0.114 3.358 0.626 4.211 1.593 0.456 0.854-1.195 2.391-0.342 3.927 0.797 1.366 6.033 4.099 5.862 4.497-0.341 0.227-5.862-1.424-7.114-2.732-1.365-1.424 0.057-4.553-0.341-5.634-0.63-1.21-2.56-1.83-2.28-1.66z" fill="#AD9D76"/>
    <path d="m103.75 306.95c0.113-0.398-3.756 0.682-5.236-0.057-1.537-0.854-3.017-5.066-3.813-4.951-0.854-0.229-2.391 3.414-1.765 4.553 0.285 1.08 2.448 2.22 4.326 2.332 1.88-0.16 6.088-1.53 6.488-1.87z" fill="#AD9D76"/>
    <path d="m94.532 311.5c1.081-0.74 4.041-1.252 5.35-1.31 0.911-0.057 0.911 1.138 1.537 1.138 0.739-0.283 2.333-1.82 2.788-1.535 0.285 0.171 0.057 2.902-0.91 3.357-1.195 0.284-3.984-0.797-5.521-0.625-1.764 0-3.642 1.479-4.097 1.364-0.63-0.4-0.346-1.71 0.85-2.4z" fill="#AD9D76"/>
    <path d="m119 300.8c1.593-2.105 6.829-8.48 8.252-9.22 1.196-0.797 0.683 2.616-0.228 4.097-0.967 1.195-3.756 2.276-5.292 3.699-1.765 1.367-4.269 4.098-4.667 4.439-0.56 0.06 0.24-1.02 1.94-3.02z" fill="#AD9D76"/>
    <path d="m122.36 302.8c2.276-1.879 7.342-6.203 9.048-6.83 1.367-0.911 0.456 1.025-0.967 2.504-1.708 1.594-6.601 4.667-8.537 6.375-2.049 1.423-3.415 2.561-3.244 2.332 0.12-0.45 1.43-2.5 3.7-4.37z" fill="#AD9D76"/>
    <path d="m112.74 261.48c0.569-0.854 3.301-3.188 5.35-3.303 1.935-0.341 5.179 1.025 6.431 1.936 1.139 0.74 1.366 3.416 0.456 3.416-1.195-0.172-5.464-3.473-7.114-3.529-1.821-0.115-2.561 2.959-3.301 3.301-0.97 0.05-2.45-0.92-1.83-1.83z" fill="#AD9D76"/>
    <path d="m101.99 269.62c0.796-1.365 4.097-3.186 5.065-3.472 0.796-0.284 0.398 0.968 0.113 1.993-0.626 1.023-1.764 2.562-2.504 3.756-0.797 0.967-1.082 2.219-1.536 2.447-0.74 0.114-1.139-0.341-1.423-1.138-0.46-0.81-0.52-2.51 0.28-3.59z" fill="#AD9D76"/>
    <path d="m112.12 279.69c0.91-1.138 5.918-1.822 7.114-1.822 0.967-0.112 0.341 1.31-0.342 1.879-0.683 0.57-2.333 0.797-3.188 1.594-0.967 0.74-1.707 2.676-2.219 2.504-0.85-0.39-2.33-3.24-1.36-4.15z" fill="#AD9D76"/>
    <path d="m75.409 223.8c1.479-1.423 3.187-2.902 5.35-4.667 1.935-1.822 4.04-3.7 7-5.862 2.845-2.333 6.375-4.667 10.358-7.456l4.553-0.398c0 0.74 0 1.65-0.456 2.504-0.512 0.74-1.024 2.333-1.992 2.618-1.081 0.284-2.845-1.935-3.983-1.423-1.309 0.342-1.822 1.765-3.301 3.187-1.593 1.195-3.813 2.675-6.033 4.439-2.561 1.936-5.976 4.268-7.854 6.09-1.708 1.423-2.562 2.219-3.017 3.016-0.569 0.683-1.024 1.822-1.138 1.878-0.455-0.056-1.081-1.024-0.968-1.593 0.06-0.63 0.629-1.48 1.483-2.34z" fill="#D4D791"/>
    <path d="m86.905 230.63c1.765 0.569 5.065 1.821 7.911 2.902 2.619 0.91 7.456 2.049 7.74 2.504 0 0.171-4.04-0.057-7.057-0.911-3.073-0.967-9.277-3.984-10.7-4.667-1.54-0.73 0.339-0.44 2.102 0.18z" fill="#D4D791"/>
    <path d="m88.67 241.44c1.764-0.513 8.479-0.967 11.78-1.139 2.959-0.228 6.66-0.626 6.488-0.284-0.284 0.284-5.577 0.91-8.195 1.65-2.959 0.512-6.603 1.48-8.31 1.593-1.709-0.05-3.53-1.47-1.765-1.82z" fill="#D4D791"/>
    <path d="m110.47 213.56c-0.74 0.74-5.236 4.326-6.261 4.837-1.138 0.285-0.228-1.593 0.342-2.333 0.456-0.91 1.992-1.708 3.073-2.163 0.86-0.69 3.42-1.03 2.85-0.35z" fill="#D4D791"/>
    <path d="m85.198 247.02c-0.967 0.456-2.902 0.74-3.813 1.708-1.025 0.74-1.708 2.731-2.277 3.358-0.796 0.569-1.593-0.968-1.479-0.227 0.228 0.568 2.391 2.789 2.504 3.358-0.227 0.341-1.707-0.058-2.675-0.968-1.081-0.969-3.016-4.496-2.959-4.894 0-0.513 2.163 1.195 3.188 1.422 0.569-0.227 1.252-0.683 1.822-1.366 0.455-0.74 0.91-2.105 2.048-2.561 1.138-0.626 4.667-1.195 5.35-1.082 0.511 0.06-0.855 0.63-1.709 1.25z" fill="#D4D791"/>
    <path d="m85.142 255.1c1.138 0.057 3.642 1.31 5.349 1.536 1.423 0.058 4.041-0.854 4.098-0.569 0 0.229-2.504 1.765-4.211 1.765-2.049-0.341-6.147-1.878-7-2.39-0.968-0.52 0.568-0.63 1.764-0.35z" fill="#D4D791"/>
    <path d="m108.13 258.52c-1.367 0.112-8.253 1.708-9.903 3.015-1.765 1.197-0.854 3.985-0.569 4.213 0.056 0-0.17-2.617 1.309-3.471 1.423-0.854 5.407-1.48 7.114-1.879 1.48-0.74 3.19-2.17 2.05-1.88z" fill="#D4D791"/>
    <path d="m82.808 287.14c1.422 0.229 4.894 3.131 6.659 3.871 1.593 0.682 2.447 0.398 2.561 0.682-0.114 0.058-1.423 0.514-3.074 0.058-1.821-0.568-6.431-2.505-7.456-3.187-0.966-0.9-0.17-1.81 1.31-1.42z" fill="#D4D791"/>
    <path d="m111.55 294.54c1.537 0.112 4.554 0.511 6.204 0.966 1.479 0.114 2.333 0.114 2.561 0.456-0.227 0.283-1.593 0.854-2.561 1.707-1.196 0.74-3.017 3.017-3.302 3.074-0.227-0.115 1.879-2.846 1.936-3.587-0.171-0.739-1.366-1.194-2.504-1.364-1.423-0.455-4.154-0.854-4.667-0.969-0.35-0.29 0.74-0.46 2.33-0.29z" fill="#D4D791"/>
    <path d="m127.2 288.34c0.171 0.057-2.903 4.383-3.927 5.977-1.195 1.48-2.845 3.586-2.959 3.472-0.341-0.341 0.512-2.96 1.708-4.553 1.25-1.66 4.72-5.18 5.18-4.9z" fill="#D4D791"/>
    <path d="m123.16 299.84c0.74-0.911 4.781-3.813 4.894-3.642-0.113 0.112-3.699 4.04-4.609 4.723-0.91 0.45-1.08-0.34-0.28-1.08z" fill="#D4D791"/>
    <path d="m131.92 302.74c0.057 0.114-0.17 2.676-0.683 4.61-0.683 1.877-2.106 5.805-2.504 6.316-0.398 0.17 1.195-4.097 0.398-4.268-0.967-0.172-4.211 2.787-5.349 3.357-1.139 0.398-2.447-0.455-1.537-1.023 0.796-0.799 4.497-2.105 6.033-3.017 1.309-0.854 1.537-1.65 2.22-2.392 0.51-1.26 1.2-3.71 1.42-3.59z" fill="#D4D791"/>
    <path d="m134.71 230.29c1.423-0.284 4.325-0.057 5.862 0.228 1.252 0.285 0.683 1.082 1.821 1.708 0.911 0.512 4.325 0.739 4.325 1.139-0.284 0.056-3.357 0.284-4.61 0.056-1.195-0.456-1.365-1.48-2.732-1.764-1.707-0.228-6.089-0.114-6.772-0.114-0.8-0.3 0.62-1.16 2.1-1.27z" fill="#D4D791"/>
    <path stroke="#90BCD8" stroke-width=".036" stroke-miterlimit="10" d="m139.21 62.398c-0.456-1.708-1.024-2.789-1.708-3.472-0.682-0.683-2.049-0.854-2.788-0.74-1.082-0.114-1.822 0.114-2.846 0.455-1.935-2.162-3.927-3.927-6.203-4.666-2.391-0.797-4.838-1.195-7.342-0.569-2.789 0.455-5.521 2.276-7.74 3.073-2.219 0.341-2.732-0.398-5.065 0.626-2.447 1.082-7.455 3.927-9.561 5.919-2.333 1.536-3.073 2.39-3.756 4.78-0.796 2.562-0.683 7-0.74 9.789-0.346 2.447-1.143 2.789-0.403 5.407 0.74 2.447 3.528 7.968 5.065 9.789 1.48 1.708 2.675 1.992 3.813 0.854 0.228-0.113-0.342 1.024-1.252 3.643-1.024 2.447-2.106 4.61-4.781 11.724-3.074 7.057-8.651 22.651-12.122 30.96-3.529 8.252-6.26 12.578-8.423 18.497-2.163 5.861-3.699 9.732-4.838 16.448-1.309 6.488-2.391 14.058-3.017 22.708h1.822c0.456 0.74 1.252 2.049 1.935 3.928 0.683 1.821 1.479 4.04 2.391 6.886 2.959-0.17 6.203-0.17 9.732-0.455 3.528-0.456 7.911-0.569 11.382-0.968 3.358-0.398 6.318-0.739 8.879-1.024 0.284 0.57 2.333 1.594 6.602 2.846 4.326 1.309 13.317 3.13 18.383 4.781 4.61 1.309 6.204 2.276 10.017 3.984 3.7 1.537 10.416 5.293 12.692 5.975 1.992 0.513 0.398-0.512 0.512-2.219 0-1.821 0.342-4.553 0.398-8.423 0.228-4.154 0.456-11.326 0.456-15.366-0.341-4.155-0.684-5.18-1.65-8.992-0.967-4.041-2.334-8.765-4.098-14.626 3.813-3.188 6.659-5.749 8.992-7.912 2.049-2.219 2.959-3.756 4.495-5.064 1.65-1.366 3.188-1.48 5.066-3.188 1.707-1.935 3.529-4.439 5.463-7.74 1.252-0.741 2.447-1.48 3.358-2.448 0.854-0.967 1.194-2.276 2.106-3.073 0.738-1.024 2.219-0.683 2.902-2.675 0.512-2.106 0.625-5.35 0.341-9.732 2.618-1.65 4.269-4.553 5.179-8.479 0.74-4.155 0.456-11.269 0-15.423-0.568-4.154-1.593-6.26-3.073-9.618-1.65-3.585-3.698-7.456-6.374-11.61 0.627-0.684 1.537-1.537 2.959-2.789 1.424-1.252 3.074-2.731 5.406-4.438-1.252 0.228-2.959 0-5.121-0.456-2.162-0.626-6.204-1.993-7.967-2.789-1.879-0.91-3.188-1.764-3.701-2.561-0.739-1.024-1.08-1.935-0.797-2.959-2.901-2.05-5.292-3.643-8.024-5.008-2.618-1.423-5.122-2.619-7.74-3.131-2.86-0.664-5.93-0.892-9.23-0.493z" fill="#90BCD8"/>
    <path d="m106.08 59.609c-0.682 0.113-0.967 1.537-0.853 2.504 0 0.683 0.284 1.708 0.853 2.39 0.399 0.626 1.082 1.537 1.822 1.423 0.74-0.342 1.65-1.992 2.106-2.789 0.17-0.796-0.342-1.537-0.854-1.992-0.74-0.74-2.51-1.764-3.08-1.536z" fill="#DFEAEE"/>
    <path d="m105.63 60.292c-0.456-0.057-0.911 1.422-0.683 2.447 0.113 0.854 1.366 2.276 1.992 2.96 0.513 0.455 0.683 0.455 1.196 0.228 0.341-0.398 1.252-1.48 1.195-1.935-0.398-0.398-1.708-0.456-2.391-0.854-0.75-0.74-0.98-2.79-1.32-2.846z" fill="#505766"/>
    <path d="m100.85 62.113c-0.228 0.456 0.569 4.667 1.707 6.26 0.911 1.252 2.333 1.878 3.813 2.106 1.479-0.057 4.382-0.796 4.723-1.309 0-0.512-2.561-1.366-3.756-1.708-1.309-0.512-2.049-0.683-3.13-1.366-1.13-0.91-3.12-4.496-3.35-3.983z" fill="#6D778C"/>
    <path d="m101.7 62.853c0.057 0.228 0.74 2.504 2.276 3.529 1.309 0.91 5.065 1.593 5.578 1.821 0.171-0.114-2.22-1.309-3.187-1.821-0.91-0.513-1.48-0.683-2.163-1.139-0.86-0.683-2.56-2.732-2.51-2.39z" fill="#DFEAEE"/>
    <path d="m109.84 72.528c-0.853 0-3.414 1.537-5.064 2.447-1.822 0.741-3.415 1.367-4.781 2.505-1.537 1.024-3.074 2.789-3.756 4.382-0.797 1.707-0.512 3.585-0.455 5.179 0 1.31-0.171 1.65 0.398 2.789 0.341 0.853 1.195 2.561 2.106 2.959 0.967 0.228 2.162-0.228 2.675-0.683 0.113-0.626-1.082-1.537-1.423-2.105-0.455-0.683-0.74-1.139-1.081-1.366-0.398-0.398-1.878 0.228-1.366-0.341 0.341-0.74 2.902-3.358 3.756-3.472 0.625-0.171-0.228 2.333 0.739 2.903 0.911 0.512 3.871 1.138 5.179 0.569 1.31-0.854 2.049-3.871 2.22-4.439 0-0.683-2.049 1.082-2.22 0.911-0.398-0.285-0.569-1.195 0.114-2.105 0.626-1.082 2.959-2.789 3.244-3.358-0.057-0.626-2.504-0.057-2.959-0.285-0.569-0.398 0.057-1.082-0.284-1.422-0.626-0.456-2.789-0.114-2.504-0.513 0.398-0.569 3.471-1.423 4.61-2.106 0.73-0.912 1.52-2.449 0.84-2.449z" fill="#6D778C"/>
    <path d="m99.313 88.862c-0.569-0.057-0.796 0.626-1.139 1.139-0.456 0.341-0.682 0.569-0.682 1.138-0.171 0.513-0.057 1.423 0.569 1.821 0.569 0 2.789-0.227 3.358-0.682 0.341-0.569-0.398-1.252-0.683-1.822-0.4-0.626-1.086-1.594-1.427-1.594z" fill="#505766"/>
    <path d="m97.207 85.959c-0.228-0.398 1.537-1.65 2.219-2.675 0.57-1.196 1.024-3.245 1.594-3.301 0.455 0.113 1.309 2.675 1.252 3.699-0.398 0.854-1.479 0.569-2.391 1.138-0.908 0.343-2.672 1.31-2.672 1.139z" fill="#505766"/>
    <path d="m102.67 91.423c-0.74-0.455-2.448-2.959-3.13-3.358-0.854-0.626-1.252 0.114-1.195 0 0.057-0.398 1.081-1.593 1.536-1.593 0.341-0.057-0.456 0.854 0.683 1.423 1.024 0.341 5.122 0.796 5.52 1.138 0.114 0.057-3.244 0.228-3.699 0.513-0.512 0.398 0.968 0.967 1.138 1.48 0 0.283-0.28 0.852-0.85 0.397z" fill="#DFEAEE"/>
    <path d="m92.825 73.154c-0.341 0.398-0.398 2.562-0.398 4.041-0.398 1.138-0.968 2.504-0.797 4.098 0.171 1.537 1.366 5.406 1.821 5.463 0.228-0.17-0.398-3.87 0.569-5.862 0.968-2.049 5.406-5.179 5.634-6.09-0.114-1.138-3.927 0.57-5.065 0.285-1.195-0.398-1.481-2.276-1.764-1.935z" fill="#6D778C"/>
    <path d="m104.55 93.927c-0.74 0.228-2.447 2.105-3.13 2.789-0.911 0.853-1.366 1.252-1.366 1.821 0.114 0.398 1.252 0.796 1.65 0.74 0-0.171-0.797-1.024-0.228-1.708 0.683-0.967 3.529-2.674 4.155-3.357 0.41-0.74-0.39-0.626-1.07-0.285z" fill="#DFEAEE"/>
    <path d="m100.45 95.065c0.797-1.252 1.537-2.049 1.993-2.162 0.512-0.342 0.854 0.341 0.569 1.195-0.626 0.797-3.073 2.504-3.642 3.585-0.626 0.797-0.399 1.367 0.227 1.708 0.456 0.284 2.505 0.569 3.074 0.398 0.341-0.456-1.252-1.139-0.398-2.048 0.797-1.139 3.529-2.903 5.122-3.301 1.252-0.285 2.504 0.967 2.902 1.593 0.285 0.626-0.171 0.456-1.366 1.65-1.65 0.854-6.829 2.334-7.228 4.212-0.284 1.821 2.903 4.041 5.407 7.114 2.333 3.073 5.862 7.854 8.366 10.643 2.276 2.447 4.04 3.87 5.064 4.951 0.626 0.968-1.65-0.171 0 1.422 1.651 1.765 8.48 6.545 10.188 8.423 1.593 1.594-1.935-0.228-0.285 1.537 1.593 1.764 7.968 6.545 9.676 8.423 1.479 1.48-0.285 0.74 0 1.536 0.17 0.513 0.739 1.537 1.708 2.846 0.854 1.309 3.244 3.301 3.642 5.52 0.114 2.276-0.91 6.66-1.536 7.456-0.683 0.456-1.935-2.846-2.22-4.439-0.512-1.992 0.398-4.61-0.341-6.089-0.854-1.423-2.732-1.252-4.781-2.562-2.276-1.593-5.976-3.528-8.252-6.431-2.562-3.188-3.699-8.025-6.033-10.984-2.391-2.789-5.976-3.984-7.911-6.033-1.993-2.276-1.878-4.155-3.813-7.17-2.106-3.188-7.74-12.18-8.594-11.838-0.911 0.342 2.675 10.757 3.073 13.659 0.228 2.675-1.479 0.797-1.821 2.276-0.456 1.309-0.739 5.749-1.082 5.634-0.569-0.569-1.308-4.269-1.536-7.797-0.399-3.642 0.114-10.87 0-12.919-0.342-2.105-0.797 0.911-1.139 0.683-0.398-0.455-0.455-3.528-0.854-3.074-0.512 0.456-1.765 4.269-2.219 5.065-0.626 0.513-0.968-1.252-1.024-1.992-0.057-0.968 0.17-2.163 0.682-3.358 0.342-1.366 1.025-3.073 1.594-4.211 0.512-1.138 0.74-2.163 1.138-2.845l1.642-2.29z" fill="#6D778C"/>
    <path d="m111.26 116.07c0.341-0.113 5.577 6.317 6.488 7.456 0.682 1.138-0.911 0.797-1.936-0.398-1.19-1.37-4.83-7.23-4.55-7.06z" fill="#505766"/>
    <path d="m120.82 127.9c1.195 0.569 6.261 4.894 7.74 6.146 1.195 1.024-1.708-0.341-0.113 1.195 1.536 1.537 7.626 6.943 9.276 8.537 1.367 1.423-0.739 0.228-0.17 1.024 0.569 0.797 3.13 3.528 3.301 4.041 0 0.398-1.65 0.057-2.959-1.253-1.423-1.479-3.983-5.008-5.52-6.658-1.821-1.594-2.959-2.22-4.041-3.188-1.024-1.252-1.024-2.162-1.992-3.414-1.082-1.537-3.358-3.188-4.211-4.325-1.09-1.13-2.34-2.78-1.32-2.1z" fill="#505766"/>
    <path d="m138.3 174.17c-0.74 0.455-4.098-3.358-5.463-5.52-1.48-2.276-2.05-6.488-3.017-8.025-0.911-1.65-2.105-0.91-2.959-1.707-0.91-1.024-0.284-3.301-2.959-3.984-2.902-0.739-11.382 0.456-14.058-0.398-2.788-0.91-3.756-4.268-2.675-5.236 0.968-1.138 4.724-1.65 8.196-1.308 3.073 0.113 8.082 1.991 11.041 3.016 2.846 0.911 4.838 1.367 6.66 3.13 1.821 1.708 3.301 4.837 3.983 6.943 0.513 1.821-1.024 2.333-0.682 4.61 0.12 2.06 2.45 8.04 1.94 8.49z" fill="#6D778C"/>
    <path d="m91.345 165.18c1.593-1.878 10.074-3.87 14.684-4.439 4.439-0.626 9.391 0.455 12.634 0.853 3.187 0.285 5.18 0.114 6.659 1.025 1.252 0.796 0.455 2.333 1.536 3.528 1.024 0.854 2.789 1.366 4.382 2.845 1.252 1.48 2.391 4.269 3.871 6.603 1.309 2.276 3.87 4.496 4.61 6.659 0.739 1.708-1.252 2.333-0.285 4.951 0.797 2.789 4.667 9.675 5.008 11.212 0.114 1.308-2.504-0.114-4.097-2.96-1.822-2.959-3.927-10.757-6.09-14.172-2.391-3.528-5.634-4.268-7.285-6.203-1.65-2.049-0.57-3.87-2.22-5.236-1.821-1.537-5.349-2.902-8.366-3.415-3.188-0.74-8.878-0.853-10.472-0.569-1.65 0.341 2.333 0.968 0.74 2.105-1.992 0.854-8.309 3.756-11.042 3.415-2.737-0.64-5.981-4.45-4.273-6.22z" fill="#6D778C"/>
    <path d="m106.94 192.16c1.537-1.024 6.773-3.983 9.562-4.041 2.617-0.17 4.04 1.31 6.658 2.902 2.675 1.31 6.659 3.813 8.651 5.521 1.593 1.536 0 2.561 1.593 4.382 1.593 1.935 6.943 5.008 7.512 6.374 0.228 1.081-3.585 1.195-5.293 0.341-1.992-1.081-3.699-4.78-5.35-6.26-1.65-1.593-3.073-1.536-4.269-2.675-1.309-1.365-2.219-3.073-3.813-4.268-1.993-1.195-4.269-2.846-6.83-2.789-2.732-0.113-6.83 2.504-8.309 2.618-1.71-0.11-1.53-1.02-0.11-2.1z" fill="#6D778C"/>
    <path d="m146.72 210.03c-0.626-1.65-1.65-3.244-2.845-4.154-1.309-1.139-5.123-1.309-4.667-2.049 0.285-0.968 5.578-2.846 6.886-2.561 1.082 0.228-0.228 3.756 0.456 4.667 0.74 0.739 1.708 1.138 3.528 0.569l-0.17 3.813c-1.593 1.081-2.732 1.593-3.188 1.536-0.58-0.07-0.58-0.75-0.01-1.83z" fill="#6D778C"/>
    <path d="m149.11 189.94c-0.456-1.48-0.911-3.13-1.594-5.577-0.683-2.504-1.878-6.944-2.276-8.708-0.569-1.764-0.683-2.39-0.569-1.878 1.821-1.536 3.187-3.016 4.723-4.211 1.31-1.309 2.333-2.277 3.7-3.529 1.252-1.366 2.845-3.756 4.097-4.723 1.025-1.082 2.048-1.765 2.619-1.821 0-1.822-0.229-4.439-0.684-7.228-0.626-2.846 0.512-8.024-2.105-10.302-2.789-2.447-10.472-3.642-13.602-4.666-3.188-1.309-4.553-2.504-5.407-2.276-1.024 0.17-1.821 2.333-0.398 3.642 1.309 1.195 7.342 2.561 8.65 3.87 1.082 1.195-1.992 2.732-1.536 3.927 0.569 1.024 3.699 1.537 4.325 2.845 0.228 1.024-1.764 2.106-2.22 4.781-0.455 2.789-0.342 8.993-0.569 11.61-0.569 2.334-1.195 3.415-2.106 3.016-1.024-0.569-2.333-5.407-3.301-6.146-1.024-0.911-2.333-0.74-2.39 1.138-0.171 1.708 0.739 7.058 1.422 9.903 0.569 2.618 1.537 4.553 1.992 6.716 0.171 2.276-0.626 4.325-0.398 6.375 0.057 1.707 0.797 3.187 1.537 4.666 0.626 1.48 1.765 3.529 2.561 4.61 0.626 0.968 1.138 1.878 1.536 1.195 0.114-1.081-0.398-4.894 0-6.146 0.42-1.15 0.87-1.72 2.01-1.09z" fill="#6D778C"/>
    <path d="m157.59 158.92c-1.422 0.512-5.121 2.618-6.488 1.707-1.195-1.195-1.195-5.463-0.626-7.512 0.342-2.049 3.586-2.618 3.13-4.553-0.569-2.106-6.09-6.431-6.033-7.512 0-1.196 4.553-0.57 6.204 0.569 1.536 1.195 2.902 4.154 3.414 6.26 0.285 1.878-1.195 3.699-1.138 5.236 0.113 1.366 1.252 2.276 1.651 3.358 0.36 0.95 0.75 1.69-0.1 2.43z" fill="#505766"/>
    <path d="m133.97 163.48c-0.114-0.968-0.854-3.529-1.593-4.837-1.024-1.48-2.846-2.619-3.7-3.643-0.91-1.082-0.512-1.821-1.65-2.447-1.366-0.683-2.846-1.082-5.521-1.423-2.789-0.569-8.878-1.423-10.358-1.025-1.479 0.228-0.739 2.277 1.594 2.846 2.049 0.284 8.935-0.456 11.439 0.17 2.276 0.797 1.992 2.789 3.073 3.984 0.968 0.854 2.276 0.456 3.301 1.65 0.797 1.195 1.935 4.269 2.561 5.293 0.41 0.57 0.98 0.46 0.86-0.56z" fill="#505766"/>
    <path d="m143.31 173.04c-0.171-1.65-1.309-5.35-1.878-6.716-0.74-1.537-1.651-2.276-1.651-0.911-0.056 1.423 1.025 8.31 1.708 9.675 0.39 1.26 1.87-0.74 1.82-2.04z" fill="#505766"/>
    <path d="m98.118 164.73c1.593-1.196 8.195-2.163 11.041-2.448 2.788-0.228 3.756 0.513 6.203 0.911 2.391 0.228 6.545-0.113 8.082 0.512 1.365 0.513-1.025 1.252 0.284 2.448 1.138 0.967 5.406 2.333 7.114 4.098 1.65 1.65 2.789 5.521 2.789 6.375-0.342 0.569-2.618-0.626-3.756-1.822-1.081-1.252-1.594-3.699-2.846-4.951-1.593-1.309-4.212-2.391-5.407-3.016-1.309-0.683 1.195-1.309-1.708-1.423-3.073-0.341-13.317-0.626-15.992-0.228-2.561 0.399 0.683 1.309 0.057 2.049-1.081 0.341-4.439 1.593-5.463 1.138-1.062-0.63-2.144-2.56-0.379-3.64z" fill="#505766"/>
    <path d="m144.44 180.83c-0.228 0.341 0.342 3.471 0.398 5.236-0.056 1.65-0.626 4.211-0.398 4.837 0.057 0.399 0.797-1.593 1.367-1.991 0.455-0.398 1.536 0.285 1.707-0.398 0-0.911-0.967-3.188-1.366-4.439-0.51-1.48-1.59-3.59-1.71-3.25z" fill="#505766"/>
    <path d="m99.654 135.59c-0.284 0.796-1.764 5.634-1.821 8.594-0.17 2.732 0.341 5.69 0.854 7.968 0.398 2.219 0.854 3.87 1.593 4.951 0.513 0.797 2.333 1.309 2.391 0.228-0.114-1.195-1.537-4.211-2.106-7.057-0.796-3.017-1.366-7.74-1.479-10.188-0.167-2.56 0.687-5.23 0.573-4.49z" fill="#6D778C"/>
    <path d="m98.003 174.34c1.479-0.74 4.723-1.424 6.659-1.822 1.65-0.456 3.074-0.91 4.269-0.683 1.138 0.227 1.708 1.252 3.471 1.536 1.878 0 7.171-1.479 7.513-1.138-0.171 0.284-4.724 1.48-7.057 2.675-2.447 1.024-4.61 2.163-6.488 3.414-1.878 1.253-4.325 3.358-4.268 4.098-0.057 0.512 2.618 0 4.496-0.455 1.765-0.569 4.269-2.447 6.431-2.562 2.049-0.398 4.041 0.968 6.204 1.024 1.992-0.171 5.577-1.366 6.374-1.138 0.626 0.228-0.569 1.537-1.821 2.39-1.252 0.627-4.042 1.082-5.521 1.139-1.65-0.171-2.562-1.821-3.813-1.65-1.365 0.057-3.073 0.967-4.04 2.049-0.968 0.796-1.082 2.846-2.106 3.7-1.195 0.796-3.301 1.707-4.781 1.423-1.765-0.285-3.244-2.789-4.667-3.13-1.537-0.398-3.017 0.797-3.813 0.739-0.91-0.285-1.992-0.739-0.854-1.821 1.082-1.139 5.236-2.959 7.171-4.382 1.65-1.594 1.708-3.415 3.017-4.154 1.195-0.626 2.959-0.285 4.211-0.285 1.139-0.17 2.789-0.854 2.732-0.967-0.228-0.398-2.504-0.74-3.984-0.57-1.707 0.057-3.244 0.796-5.065 1.537-2.049 0.626-4.326 2.562-5.521 2.732-1.139-0.114-1.65-1.082-1.31-1.821 0.127-0.69 0.981-1.32 2.574-1.89z" fill="#6D778C"/>
    <path d="m72.962 160.46c-0.626 1.593-1.537 3.585-2.106 5.976-0.796 2.276-1.422 4.439-2.105 8.025-0.683 3.471-1.195 7.74-1.765 12.806 0.797-1.423 1.479-2.447 2.276-2.619 0.683-0.341 1.309 1.423 1.879 0.911 0.341-0.797 0.17-2.562 0.796-4.838 0.74-2.447 2.276-6.772 2.845-8.594 0.171-1.708-1.479-0.796-1.252-1.878 0.171-1.593 2.219-4.382 2.447-5.919 0.057-1.422-1.65-1.764-2.049-2.333-0.625-0.74-0.738-1.26-0.966-1.54z" fill="#6D778C"/>
    <path d="m72.108 164.73c-0.74 1.081-1.594 4.894-2.106 7.74-0.626 2.561-1.252 7-0.967 7.854 0.227 0.569 2.162-2.447 2.504-3.529 0.056-0.968-1.367-1.024-0.968-2.618 0.228-1.821 2.789-6.146 3.074-7.74 0.227-1.82-1.082-2.61-1.537-1.7z" fill="#505766"/>
    <path d="m66.758 188.23c0.797-1.024 1.537-1.764 2.22-1.992 0.74-0.285 1.195-0.342 1.593 0.456 0.057 0.739-0.569 2.447-0.569 3.813-0.057 1.196 0.911 2.959 0.683 3.756-0.513 0.683-1.48-0.227-2.276 0.342-0.797 0.341-1.423 1.082-2.106 2.219-0.114-0.569-0.114-1.48 0-2.959 0.114-1.48 0.114-3.36 0.455-5.64z" fill="#DFEAEE"/>
    <path d="m82.58 194.72c1.024 2.959 2.276 4.724 3.984 5.977 1.593 1.081 2.903 0.455 5.691 0.569 2.675-0.285 7-0.967 10.13-0.74 2.959 0.285 4.154 1.423 7.968 2.561 3.756 0.854 14.626 4.269 14.398 3.415-0.455-0.967-12.236-7.229-16.675-8.651-4.553-1.593-6.716 0.057-9.789-0.284-3.074-0.57-5.293-0.683-8.651-2.106-3.528-1.594-7.797-3.528-12.578-6.488l5.518 5.75z" fill="#6D778C"/>
    <path d="m72.393 199.73c2.162-0.228 4.553-0.228 7.398 0 2.732 0.17 6.488 0.683 9.277 0.911 2.618-0.057 4.78 0.058 6.943-0.114 2.162-0.171 4.041-0.91 5.862-0.683 1.65 0.056 2.277 0.796 4.496 1.536 2.105 0.683 5.293 1.65 8.48 2.675 3.187 0.967 6.942 1.65 9.959 2.675 2.675 0.797 4.724 1.936 6.773 2.732 1.992 0.626 3.301 0.91 5.236 1.764 1.878 1.024 4.097 2.22 5.975 3.357 1.765 0.854 3.301 1.537 4.382 1.822 0.968-0.058 1.423-0.57 1.139-1.082-0.57-0.57-2.789-1.196-3.585-2.106-0.911-1.195-0.854-3.586-1.366-4.553-0.512-0.968-1.878-1.424-1.708-1.594-0.057-0.285 1.081-1.195 1.651-0.569 0.398 0.398 0.91 1.992 1.309 3.017 0.171 0.967-0.456 1.821 0.285 2.788 0.74 0.684 3.358 1.252 4.098 2.163 0.626 0.797 0.455 2.902-0.284 3.244-0.911 0.171-2.106-0.456-4.497-1.422-2.447-1.195-6.602-3.301-9.846-4.781-3.415-1.423-6.772-3.017-9.846-3.871-3.244-0.967-5.976-1.707-8.822-2.219-2.958-0.683-5.634-1.65-8.024-2.276-2.391-0.854-3.528-2.049-5.862-2.276-2.504-0.342-6.204 0.683-8.879 0.854-2.788 0-5.236-0.285-7.796-0.398-2.903-0.398-6.432-0.684-8.594-0.854-2.22-0.17-3.7 0.398-4.439 0.398-0.74-0.17-1.082-0.456-0.398-0.854l0.679-0.29z" fill="#DFEAEE"/>
    <path d="m123.33 183.05c-1.082-0.057-7.797 1.878-8.708 2.504-1.024 0.398 1.48 0.512 2.675 0.569 1.082 0 2.333-0.057 3.528-0.398 0.96-0.68 3.41-2.67 2.5-2.67z" fill="#DFEAEE"/>
    <path d="m121.51 187.15c0.398-0.057 2.447 0.74 3.301 1.537 0.854 0.513 1.936 1.708 1.708 1.821-0.512-0.114-3.756-0.91-4.439-1.536-0.91-0.62-1.03-1.82-0.57-1.82z" fill="#DFEAEE"/>
    <path d="m109.9 179.18c0.398-0.569 2.561-1.309 3.871-1.536 1.195-0.228 2.105 0.284 3.358 0.455 1.195-0.057 3.358-0.228 3.414-0.057-0.228 0.114-3.301 0.569-4.382 0.74-1.138-0.057-2.049-0.456-2.732-0.284-1.024 0.113-1.934 0.967-2.504 1.252-0.75 0.06-1.6-0.34-1.03-0.57z" fill="#DFEAEE"/>
    <path d="m109.78 170.42c0.512-0.113 1.081 0.285 1.935 0.57 0.739 0.284 0.91 0.91 2.276 1.024 1.138-0.171 4.781-1.594 5.008-1.423 0.113 0.17-3.017 1.707-4.098 2.219-1.309 0.171-2.561-0.113-3.301-0.228-0.854-0.171-1.024-0.626-1.366-0.74-0.74-0.285-1.423-0.399-1.594-0.57-0.17-0.34 0.57-0.85 1.13-0.85z" fill="#DFEAEE"/>
    <path d="m107.51 158.35c2.219 0 7.74 0.456 9.504 1.139 1.479 0.284 1.252 1.195 0 1.195-1.423-0.171-5.634-1.31-7.797-1.423-2.333-0.114-4.837 1.024-5.122 0.967-0.45-0.34 1.2-1.71 3.42-1.88z" fill="#DFEAEE"/>
    <path d="m120.54 148.22c0 0.171 2.049 0.569 3.984 1.423 1.992 0.682 6.659 2.675 7.626 2.902 0.797-0.057-1.935-1.65-3.13-2.333-1.537-0.797-3.871-1.252-5.236-1.593-1.53-0.51-3.41-0.57-3.24-0.4z" fill="#DFEAEE"/>
    <path d="m168 77.024c0.569 0.626 0.854 1.252 0.854 1.65-0.17 0.228-1.594 0-1.422 0.854 0.112 0.854 1.877 3.585 1.991 4.439-0.171 0.455-2.22-0.513-2.39-0.057-0.172 0.398 1.252 2.561 1.422 3.415-0.058 0.739-2.333 0.455-1.139 1.593 1.139 1.082 8.139 3.358 7.797 5.065-0.568 1.479-9.162 2.902-10.642 4.496-1.48 1.48 0.227 1.935 1.82 5.123 1.538 3.187 5.122 8.878 7.001 14 1.536 4.951 3.244 13.204 2.96 15.764-0.343 2.22-3.415-1.707-4.839-1.48-1.366 0.342-2.561 1.993-3.813 3.188-1.537 0.854-4.098 1.537-4.838 2.902-0.797 1.31-0.342 4.155 0.456 5.236 0.567 0.911 1.194 1.708 3.642 0.854 2.277-0.967 5.862-3.016 10.529-6.374 0.057 1.024-0.114 1.992-0.285 2.903-0.228 0.854-0.455 1.708-0.91 2.333-0.627 0.512-1.537 0.456-2.105 1.138-0.627 0.456-0.455 1.594-1.252 2.562-0.969 0.854-3.131 2.048-4.098 3.13-1.082 0.967-0.968 2.049-1.879 3.017-1.138 0.797-3.017 3.016-4.098 2.675-1.139-0.455-2.277-3.073-2.561-4.78-0.57-1.821 0.455-3.927 0-5.691-0.684-1.936-1.65-3.301-2.903-5.635-1.366-2.674-3.984-7.854-4.554-9.39-0.569-1.48 0.399-1.139 1.139-0.285 0.569 0.569 2.163 4.724 2.789 4.154 0.398-0.854-0.171-7.513 0.284-7.911 0.285-0.341 0.967 5.179 2.276 6.033 1.139 0.512 4.383-0.626 5.123-1.65 0.569-1.195-0.911-3.188-1.594-4.439-0.91-1.366-2.618-0.455-3.131-2.788-0.625-2.562 0.342-7.684 0.058-11.383-0.569-3.813-1.423-7.626-2.562-10.586-1.309-3.074-3.813-6.83-4.666-7.512-0.854-0.854-0.057 2.39-0.456 2.731-0.683 0.057-1.878-1.252-2.504-1.308-0.569-0.114-1.537-0.057-1.139 1.252 0.342 1.082 3.415 6.431 2.846 5.976-0.796-0.512-6.716-7.513-7.228-8.935-0.683-1.48 3.187 0.512 3.927 0.057 0.512-0.683-0.455-3.302 0.171-3.472 0.512-0.284 2.39 2.448 3.244 2.276 0.74-0.512-0.569-4.61 1.366-3.927 1.821 0.796 7.683 6.886 9.675 8.366 1.766 1.139 1.766 0.569 1.31-0.626-0.684-1.536-3.529-4.382-4.839-6.773-1.536-2.39-2.674-5.463-2.959-6.772-0.113-1.252 1.139-1.537 1.992-1.082 0.684 0.228 1.309 2.334 2.105 2.789 0.512 0.171 1.252-0.854 2.22-0.626s3.301 2.162 3.699 2.106c0.171-0.285-1.081-2.277-1.991-3.13-0.911-0.854-3.017-1.195-3.699-1.878-0.911-0.797 0.228-1.65-1.423-2.789-1.765-1.537-8.423-4.439-8.766-4.951-0.398-0.569 3.757 0.455 6.545 1.992 2.846 1.309 8.196 6.203 9.903 6.773 1.252 0.512-0.91-2.619-1.025-3.245 0.058-0.682 0.456-0.17 0.742-0.456-0.058-0.398-0.912-1.308-0.57-1.422 0.25-0.211 1.05-0.04 2.41 0.529z" fill="#6D778C"/>
    <path d="m155.03 93.415c0.967 2.22 5.236 7.797 6.659 11.896 1.081 3.927 0.171 8.366 0.796 11.553 0.455 3.017 1.252 4.326 3.245 6.773 1.991 2.39 7.227 7.171 8.708 7.569 1.137 0.113 0.169-2.391-1.139-5.976-1.309-3.699-4.609-10.871-6.375-15.139-1.991-4.269-2.732-7.228-4.666-10.188-2.049-3.073-5.635-6.944-6.83-7.911-1.38-1.07-1.44-0.956-0.41 1.434z" fill="#505766"/>
    <path d="m159.92 85.902c-0.113 0.968 0.797 3.528 2.276 5.065 1.252 1.252 4.154 2.105 5.862 2.561 1.535 0.341 3.813 0.398 4.211 0.171 0.285-0.456-0.455-1.423-1.535-1.992-1.31-0.626-3.814-0.399-5.123-1.309-1.366-1.139-1.822-3.756-2.676-4.554-0.97-0.796-3.07-0.852-3.02 0.058z" fill="#505766"/>
    <path d="m169.43 78.048c0.683 1.65 1.081 3.188 1.821 4.61 0.568 1.422 1.195 2.39 1.877 3.528 0.969-0.911 2.049-1.935 3.244-2.846 1.082-1.024 2.504-1.934 3.813-2.958-1.991-0.285-3.87-0.626-5.634-1.024-1.82-0.399-3.53-0.911-5.12-1.31z" fill="#505766"/>
    <path d="m165.62 147.42c0.342-1.082 2.902-2.333 3.928-2.845 0.797-0.513 1.308 0.456 1.991 0.057 0.626-0.57 1.82-2.448 2.276-2.562 0.113-0.17-0.057 0.74-0.285 1.423-0.227 0.456-0.682 1.252-1.137 1.935-0.57 0.456-1.252 1.252-1.822 1.536-0.683 0-1.252-0.341-1.935 0.057-0.739 0.398-1.65 2.959-2.049 3.073-0.63 0.1-1.55-1.89-0.97-2.69z" fill="#505766"/>
    <path d="m136.31 113.68c0.398 0.455 4.951 5.179 7.512 7.341 2.391 2.163 4.497 3.984 6.545 5.236 1.764 1.081 4.154 1.423 4.325 1.252 0.057-0.455-1.138-1.48-3.358-3.074-2.333-1.821-7.57-4.837-10.017-6.659-2.72-1.83-5.34-4.73-4.99-4.1z" fill="#DFEAEE"/>
    <path d="m155.43 121.59c-0.228 1.082-0.398 2.333-0.285 3.301-0.17 0.796-0.113 2.391 0.171 1.48 0.285-1.139 0.968-7.001 1.139-7.74-0.05-0.86-0.91 1.87-1.02 2.96z" fill="#DFEAEE"/>
    <path d="m149.91 96.772c-0.398 0.228 1.765 3.017 2.789 4.838 0.967 1.708 2.845 5.293 3.187 5.293 0.114-0.285-0.569-5.065-1.593-6.659-1.09-1.873-4.16-3.695-4.39-3.468z" fill="#DFEAEE"/>
    <path d="m154 83.626c0.342 1.479 1.537 3.813 3.13 6.146 1.537 2.163 4.781 5.691 5.805 6.659 0.684 0.683 0-0.569-0.967-1.991-1.081-1.424-3.529-4.099-4.724-6.261-1.309-2.276-1.708-6.374-2.276-7.057-0.68-0.74-1.36 0.967-0.97 2.504z" fill="#DFEAEE"/>
    <path d="m165.9 102.18c0.114 0.683 2.105 3.131 3.813 6.261 1.537 3.016 4.781 10.643 5.805 11.895 0.854 1.024 1.025-2.333-0.113-5.008-1.365-2.902-5.18-9.277-6.83-11.44-1.71-2.17-2.91-2.73-2.68-1.71z" fill="#DFEAEE"/>
    <path d="m134.03 128.81c-2.562-1.082-7.911-1.252-8.594-1.593-0.74-0.398 3.13 0.285 3.699-0.797 0.285-1.423-2.447-6.943-1.422-6.659 0.911 0.342 4.269 6.204 7.228 8.594 2.902 2.163 7.513 3.528 10.301 4.554 2.561 0.797 3.13-0.342 5.236 0.967 2.049 1.366 5.977 5.805 6.943 6.943 0.626 0.74-1.195-0.057-2.39-1.082-1.252-0.967-2.618-3.358-5.009-4.325-2.617-1.252-7.114-1.309-9.731-2.333-2.74-1.3-3.88-3.23-6.27-4.26z" fill="#DFEAEE"/>
    <path stroke="#000" stroke-width=".036" stroke-miterlimit="10" d="m208.13 75.658c-1.992-0.512-3.301-0.967-4.61-1.138-1.308-0.285-0.797 0-2.846-0.228-2.163-0.342-5.178-0.797-9.504-1.366-0.683-0.512-1.024-0.91-1.252-1.423-0.398-0.512-0.398-1.366 0-1.708 0.398-0.569 1.252-1.024 2.562-1.366 3.301 0.114 5.805 0.512 7.968 0.967 2.048 0.398 1.708 1.082 4.495 1.821 2.504 0.512 5.35 1.025 11.383 2.22 6.032 1.195 16.504 2.903 24.586 4.894 7.969 1.765 14.57 3.871 22.652 6.09 7.968 2.106 19.236 5.065 24.813 6.66 5.293 1.308 5.293 1.593 7.456 1.934 2.049 0.228 4.324 1.139 5.747 0.342 1.31-0.854 1.424-4.098 2.96-5.351 1.536-1.536 3.984-2.504 6.261-2.447 2.105 0.113 4.325 0.113 6.432 3.528 1.877 3.529 5.975 12.635 5.292 16.79-0.854 3.87-7.229 5.634-10.131 6.829-3.072 1.082-5.69 1.936-7.627-0.512-2.048-2.846-3.243-7.74-4.04-15.537-3.415-0.741-7.569-1.708-12.691-2.903-5.235-1.195-9.221-2.561-17.87-4.553-8.992-2.333-23.79-5.862-34.262-8.195-10.47-2.337-19.58-4.045-27.77-5.354z"/>
    <path stroke="#000" stroke-width=".036" stroke-miterlimit="10" d="m304.65 96.659c5.35-3.415 8.765-5.236 10.017-5.464 1.252-0.285-2.447 2.504-2.562 3.528-0.341 0.74 0.114 1.708 1.138 1.821 0.854 0 4.839-1.423 4.496-0.967-0.454 0.455-5.009 2.276-6.828 3.699-2.106 1.195-3.529 2.561-4.896 3.87-0.342-0.513-0.512-1.479-0.74-2.447-0.23-1.196-0.51-2.39-0.63-4.041z" fill="#404040"/>
    <path stroke="#000" stroke-width=".036" stroke-miterlimit="10" d="m306.36 105.59c0.683-1.992 7.114-5.634 8.31-5.862 1.023-0.341-1.937 3.756-1.195 4.155 0.854 0.285 5.634-2.675 5.975-2.049-0.057 0.456-5.008 4.098-5.008 5.008 0 0.796 5.464-0.74 5.406 0-0.17 0.74-4.381 2.504-6.031 3.528-1.822 0.74-2.902 1.65-4.155 0.968-1.5-1.02-4.06-3.75-3.32-5.75z" fill="#404040"/>
    <path stroke="#000" stroke-width=".036" stroke-miterlimit="10" d="m304.31 93.13c5.121-3.13 8.252-4.553 9.39-4.895 1.024-0.398-1.366 2.163-2.788 3.301-1.538 1.024-3.473 2.163-6.034 3.187-0.17-0.511-0.34-1.023-0.57-1.593z" fill="#A1A1A1"/>
    <path d="m169.43 41.51c0.397 0.342 0.854 1.025 1.366 1.594 0.342 0.569 1.023 1.252 1.422 2.049 0.342 0.797 0.455 1.65 0.57 2.789-0.969 0.228-1.594 1.138-2.505 2.504-0.739 1.252-2.277 5.122-2.446 5.691-0.344 0.399 0.227-2.504 0.169-2.561-0.397-0.228-1.991 2.618-1.935 2.162-0.113-0.512 1.65-4.154 1.766-4.781 0.057-0.683-1.538 0.854-1.481 0.911-0.057-0.285 0.854-1.366 0.968-1.48 0.058-0.114-1.252 1.024-1.082 0.968-0.055-0.342 0.911-1.879 0.911-2.163-0.228-0.455-1.422 0.569-1.422 0 0-0.796 0.683-2.276 1.422-3.585 0.63-1.309 1.31-2.674 2.28-4.098z" fill="#A16121"/>
    <path d="m170.17 42.592c-0.968 1.309-1.707 2.163-1.765 2.561-0.284 0.341 0.114 0.057 0.741-0.626-1.025 1.593-1.652 2.562-1.652 2.902-0.17 0 1.082-1.479 1.14-1.365-0.058 0.056-0.569 0.91-1.31 2.333 0.514-0.797 1.081-1.48 1.708-2.277 0.625-0.91 0.966-1.708 1.65-2.618-0.17-0.284-0.34-0.568-0.51-0.91z" fill="#7F4008"/>
    <path d="m170.85 45.893c-0.112-0.057-1.195 1.423-1.479 2.219-0.512 0.626-0.739 1.423-0.682 1.708 0 0 0.797-1.195 0.854-0.968-0.172 0.057-1.367 2.391-1.197 2.391 0.115-0.114 1.252-2.049 1.65-2.504 0.058-0.513-0.682-0.058-0.453-0.398 0.17-0.513 1.2-2.505 1.31-2.448z" fill="#7F4008"/>
  </g>
  <metadata>
    <rdf:RDF>
      <cc:Work>
        <dc:format>image/svg+xml</dc:format>
        <dc:type rdf:resource="http://purl.org/dc/dcmitype/StillImage"/>
        <cc:license rdf:resource="http://creativecommons.org/licenses/publicdomain/"/>
        <dc:publisher>
          <cc:Agent rdf:about="http://openclipart.org/">
            <dc:title>Openclipart</dc:title>
          </cc:Agent>
        </dc:publisher>
        <dc:title>Golf Drive</dc:title>
        <dc:date>2007-11-13T20:03:45</dc:date>
        <dc:description>clip art, clipart, drive, golf, man, people, sport, </dc:description>
        <dc:source>http://openclipart.org/detail/8264/golf-drive-by-gerald_g-8264</dc:source>
        <dc:creator>
          <cc:Agent>
            <dc:title>Gerald_G</dc:title>
          </cc:Agent>
        </dc:creator>
        <dc:subject>
          <rdf:Bag>
            <rdf:li>clip art</rdf:li>
            <rdf:li>clipart</rdf:li>
            <rdf:li>drive</rdf:li>
            <rdf:li>golf</rdf:li>
            <rdf:li>man</rdf:li>
            <rdf:li>people</rdf:li>
            <rdf:li>sport</rdf:li>
          </rdf:Bag>
        </dc:subject>
      </cc:Work>
      <cc:License rdf:about="http://creativecommons.org/licenses/publicdomain/">
        <cc:permits rdf:resource="http://creativecommons.org/ns#Reproduction"/>
        <cc:permits rdf:resource="http://creativecommons.org/ns#Distribution"/>
        <cc:permits rdf:resource="http://creativecommons.org/ns#DerivativeWorks"/>
      </cc:License>
    </rdf:RDF>
  </metadata>
</svg>
